<?xml version="1.0" encoding="utf-8" standalone="no"?>
<!DOCTYPE svg PUBLIC "-//W3C//DTD SVG 1.1//EN"
  "http://www.w3.org/Graphics/SVG/1.1/DTD/svg11.dtd">
<svg xmlns:xlink="http://www.w3.org/1999/xlink" width="432pt" height="288pt" viewBox="0 0 432 288" xmlns="http://www.w3.org/2000/svg" version="1.1">
 <metadata>
  <rdf:RDF xmlns:dc="http://purl.org/dc/elements/1.1/" xmlns:cc="http://creativecommons.org/ns#" xmlns:rdf="http://www.w3.org/1999/02/22-rdf-syntax-ns#">
   <cc:Work>
    <dc:type rdf:resource="http://purl.org/dc/dcmitype/StillImage"/>
    <dc:date>2024-05-20T20:26:21.252645</dc:date>
    <dc:format>image/svg+xml</dc:format>
    <dc:creator>
     <cc:Agent>
      <dc:title>Matplotlib v3.8.4, https://matplotlib.org/</dc:title>
     </cc:Agent>
    </dc:creator>
   </cc:Work>
  </rdf:RDF>
 </metadata>
 <defs>
  <style type="text/css">*{stroke-linejoin: round; stroke-linecap: butt}</style>
 </defs>
 <g id="figure_1">
  <g id="patch_1">
   <path d="M 0 288 
L 432 288 
L 432 0 
L 0 0 
z
" style="fill: #ffffff"/>
  </g>
  <g id="axes_1">
   <g id="patch_2">
    <path d="M 38.88 239.04 
L 388.8 239.04 
L 388.8 11.52 
L 38.88 11.52 
z
" style="fill: #ffffff"/>
   </g>
   <g id="matplotlib.axis_1">
    <g id="xtick_1">
     <g id="line2d_1">
      <defs>
       <path id="m2fed1728cb" d="M 0 0 
L 0 3.5 
" style="stroke: #000000; stroke-width: 0.8"/>
      </defs>
      <g>
       <use xlink:href="#m2fed1728cb" x="38.88" y="239.04" style="stroke: #000000; stroke-width: 0.8"/>
      </g>
     </g>
     <g id="text_1">
      <!-- 0 -->
      <g transform="translate(36.241172 253.234375) scale(0.09 -0.09)">
       <defs>
        <path id="MicrosoftYaHei-30" d="M 284 2325 
Q 284 3606 709 4264 
Q 1134 4922 1941 4922 
Q 3478 4922 3478 2441 
Q 3478 1216 3045 567 
Q 2613 -81 1831 -81 
Q 1094 -81 689 534 
Q 284 1150 284 2325 
z
M 909 2353 
Q 909 425 1888 425 
Q 2850 425 2850 2384 
Q 2850 4413 1906 4413 
Q 909 4413 909 2353 
z
" transform="scale(0.015625)"/>
       </defs>
       <use xlink:href="#MicrosoftYaHei-30"/>
      </g>
     </g>
    </g>
    <g id="xtick_2">
     <g id="line2d_2">
      <g>
       <use xlink:href="#m2fed1728cb" x="38.88" y="239.04" style="stroke: #000000; stroke-width: 0.8"/>
      </g>
     </g>
     <g id="text_2">
      <!-- 0 -->
      <g transform="translate(36.241172 253.234375) scale(0.09 -0.09)">
       <use xlink:href="#MicrosoftYaHei-30"/>
      </g>
     </g>
    </g>
    <g id="xtick_3">
     <g id="line2d_3">
      <g>
       <use xlink:href="#m2fed1728cb" x="126.13199" y="239.04" style="stroke: #000000; stroke-width: 0.8"/>
      </g>
     </g>
     <g id="text_3">
      <!-- 8610 -->
      <g transform="translate(115.576677 253.234375) scale(0.09 -0.09)">
       <defs>
        <path id="MicrosoftYaHei-38" d="M 306 1350 
Q 306 1769 556 2122 
Q 806 2475 1200 2625 
Q 884 2803 700 3081 
Q 516 3359 516 3684 
Q 516 4028 692 4312 
Q 869 4597 1183 4759 
Q 1497 4922 1875 4922 
Q 2256 4922 2572 4761 
Q 2888 4600 3063 4315 
Q 3238 4031 3238 3684 
Q 3238 3366 3058 3086 
Q 2878 2806 2559 2625 
Q 2953 2472 3200 2119 
Q 3447 1766 3447 1350 
Q 3447 938 3250 611 
Q 3053 284 2690 103 
Q 2328 -78 1875 -78 
Q 1425 -78 1065 103 
Q 706 284 506 612 
Q 306 941 306 1350 
z
M 906 1378 
Q 906 947 1172 687 
Q 1438 428 1878 428 
Q 2309 428 2582 692 
Q 2856 956 2856 1378 
Q 2856 1778 2579 2051 
Q 2303 2325 1878 2325 
Q 1456 2325 1181 2058 
Q 906 1791 906 1378 
z
M 1081 3634 
Q 1081 3309 1312 3076 
Q 1544 2844 1878 2844 
Q 2206 2844 2445 3078 
Q 2684 3313 2684 3634 
Q 2684 3963 2454 4191 
Q 2225 4419 1878 4419 
Q 1534 4419 1307 4195 
Q 1081 3972 1081 3634 
z
" transform="scale(0.015625)"/>
        <path id="MicrosoftYaHei-36" d="M 3181 4219 
Q 2803 4413 2391 4413 
Q 1763 4413 1381 3866 
Q 1000 3319 994 2372 
L 1009 2372 
Q 1353 3038 2106 3038 
Q 2734 3038 3109 2628 
Q 3484 2219 3484 1541 
Q 3484 831 3051 375 
Q 2619 -81 1947 -81 
Q 1209 -81 789 495 
Q 369 1072 369 2131 
Q 369 3413 920 4167 
Q 1472 4922 2372 4922 
Q 2888 4922 3181 4781 
L 3181 4219 
z
M 1031 1584 
Q 1031 1106 1286 765 
Q 1541 425 1963 425 
Q 2363 425 2613 719 
Q 2863 1013 2863 1475 
Q 2863 1975 2627 2253 
Q 2391 2531 1956 2531 
Q 1544 2531 1287 2250 
Q 1031 1969 1031 1584 
z
" transform="scale(0.015625)"/>
        <path id="MicrosoftYaHei-31" d="M 1781 0 
L 1781 4141 
Q 1638 3997 1295 3819 
Q 953 3641 663 3569 
L 663 4169 
Q 1047 4275 1484 4508 
Q 1922 4741 2156 4947 
L 2388 4947 
L 2388 0 
L 1781 0 
z
" transform="scale(0.015625)"/>
       </defs>
       <use xlink:href="#MicrosoftYaHei-38"/>
       <use xlink:href="#MicrosoftYaHei-36" x="58.642578"/>
       <use xlink:href="#MicrosoftYaHei-31" x="117.285156"/>
       <use xlink:href="#MicrosoftYaHei-30" x="175.927734"/>
      </g>
     </g>
    </g>
    <g id="xtick_4">
     <g id="line2d_4">
      <g>
       <use xlink:href="#m2fed1728cb" x="213.383979" y="239.04" style="stroke: #000000; stroke-width: 0.8"/>
      </g>
     </g>
     <g id="text_4">
      <!-- 17220 -->
      <g transform="translate(200.189839 253.234375) scale(0.09 -0.09)">
       <defs>
        <path id="MicrosoftYaHei-37" d="M 3422 4463 
Q 2659 3131 2223 1998 
Q 1788 866 1684 0 
L 1047 0 
Q 1163 853 1594 1947 
Q 2025 3041 2747 4300 
L 347 4300 
L 347 4841 
L 3422 4841 
L 3422 4463 
z
" transform="scale(0.015625)"/>
        <path id="MicrosoftYaHei-32" d="M 2666 3572 
Q 2666 3963 2419 4186 
Q 2172 4409 1747 4409 
Q 1447 4409 1140 4256 
Q 834 4103 569 3819 
L 569 4413 
Q 806 4659 1107 4790 
Q 1409 4922 1816 4922 
Q 2472 4922 2872 4570 
Q 3272 4219 3272 3619 
Q 3272 3084 3026 2693 
Q 2781 2303 2188 1894 
Q 1581 1475 1376 1294 
Q 1172 1113 1090 947 
Q 1009 781 1009 544 
L 3416 544 
L 3416 0 
L 372 0 
L 372 241 
Q 372 659 486 951 
Q 600 1244 862 1520 
Q 1125 1797 1681 2184 
Q 2250 2584 2458 2886 
Q 2666 3188 2666 3572 
z
" transform="scale(0.015625)"/>
       </defs>
       <use xlink:href="#MicrosoftYaHei-31"/>
       <use xlink:href="#MicrosoftYaHei-37" x="58.642578"/>
       <use xlink:href="#MicrosoftYaHei-32" x="117.285156"/>
       <use xlink:href="#MicrosoftYaHei-32" x="175.927734"/>
       <use xlink:href="#MicrosoftYaHei-30" x="234.570312"/>
      </g>
     </g>
    </g>
    <g id="xtick_5">
     <g id="line2d_5">
      <g>
       <use xlink:href="#m2fed1728cb" x="300.635969" y="239.04" style="stroke: #000000; stroke-width: 0.8"/>
      </g>
     </g>
     <g id="text_5">
      <!-- 25830 -->
      <g transform="translate(287.441828 253.234375) scale(0.09 -0.09)">
       <defs>
        <path id="MicrosoftYaHei-35" d="M 3294 1494 
Q 3294 784 2823 350 
Q 2353 -84 1559 -84 
Q 878 -84 544 119 
L 544 744 
Q 1034 425 1544 425 
Q 2050 425 2361 704 
Q 2672 984 2672 1447 
Q 2672 1909 2348 2167 
Q 2025 2425 1434 2425 
Q 978 2425 613 2384 
L 791 4841 
L 3053 4841 
L 3053 4303 
L 1306 4303 
L 1206 2931 
L 1647 2950 
Q 2416 2950 2855 2567 
Q 3294 2184 3294 1494 
z
" transform="scale(0.015625)"/>
        <path id="MicrosoftYaHei-33" d="M 447 809 
Q 944 425 1569 425 
Q 2069 425 2361 670 
Q 2653 916 2653 1328 
Q 2653 2247 1338 2247 
L 934 2247 
L 934 2753 
L 1319 2753 
Q 2484 2753 2484 3616 
Q 2484 4413 1594 4413 
Q 1084 4413 634 4069 
L 634 4647 
Q 1109 4922 1744 4922 
Q 2363 4922 2738 4598 
Q 3113 4275 3113 3759 
Q 3113 2809 2144 2538 
L 2144 2525 
Q 2669 2469 2973 2155 
Q 3278 1841 3278 1372 
Q 3278 719 2808 319 
Q 2338 -81 1556 -81 
Q 869 -81 447 175 
L 447 809 
z
" transform="scale(0.015625)"/>
       </defs>
       <use xlink:href="#MicrosoftYaHei-32"/>
       <use xlink:href="#MicrosoftYaHei-35" x="58.642578"/>
       <use xlink:href="#MicrosoftYaHei-38" x="117.285156"/>
       <use xlink:href="#MicrosoftYaHei-33" x="175.927734"/>
       <use xlink:href="#MicrosoftYaHei-30" x="234.570312"/>
      </g>
     </g>
    </g>
    <g id="xtick_6">
     <g id="line2d_6">
      <g>
       <use xlink:href="#m2fed1728cb" x="388.8" y="239.04" style="stroke: #000000; stroke-width: 0.8"/>
      </g>
     </g>
     <g id="text_6">
      <!-- 34530 -->
      <g transform="translate(375.605859 253.234375) scale(0.09 -0.09)">
       <defs>
        <path id="MicrosoftYaHei-34" d="M 2906 4841 
L 2906 1644 
L 3631 1644 
L 3631 1138 
L 2906 1138 
L 2906 0 
L 2313 0 
L 2313 1138 
L 53 1138 
L 53 1616 
Q 656 2294 1265 3178 
Q 1875 4063 2272 4841 
L 2906 4841 
z
M 741 1644 
L 2313 1644 
L 2313 3950 
Q 1988 3366 1616 2817 
Q 1244 2269 741 1644 
z
" transform="scale(0.015625)"/>
       </defs>
       <use xlink:href="#MicrosoftYaHei-33"/>
       <use xlink:href="#MicrosoftYaHei-34" x="58.642578"/>
       <use xlink:href="#MicrosoftYaHei-35" x="117.285156"/>
       <use xlink:href="#MicrosoftYaHei-33" x="175.927734"/>
       <use xlink:href="#MicrosoftYaHei-30" x="234.570312"/>
      </g>
     </g>
    </g>
    <g id="text_7">
     <!-- 历元(秒) -->
     <g transform="translate(191.83125 268.964219) scale(0.12 -0.12)">
      <defs>
       <path id="MicrosoftYaHei-5386" d="M 1669 3084 
L 3028 3084 
Q 3044 3650 3044 4222 
L 3569 4222 
Q 3563 3650 3547 3084 
L 5800 3084 
Q 5725 1422 5656 341 
Q 5556 -616 4688 -634 
Q 4219 -634 3588 -603 
Q 3556 -366 3494 -41 
Q 4113 -109 4588 -109 
Q 5088 -103 5156 466 
Q 5225 1366 5269 2603 
L 3531 2603 
Q 3478 1334 3138 691 
Q 2681 -166 1513 -847 
Q 1338 -641 1144 -422 
Q 2294 284 2644 947 
Q 2969 1528 3013 2603 
L 1669 2603 
L 1669 3084 
z
M 1325 2766 
Q 1319 1384 1144 647 
Q 963 -116 456 -841 
Q 300 -628 81 -416 
Q 506 197 650 816 
Q 794 1416 794 2653 
L 794 4916 
L 6244 4916 
L 6244 4434 
L 1325 4434 
L 1325 2766 
z
" transform="scale(0.015625)"/>
       <path id="MicrosoftYaHei-5143" d="M 188 3084 
L 6225 3084 
L 6225 2609 
L 4250 2609 
L 4250 172 
Q 4250 -197 4625 -197 
L 5163 -197 
Q 5613 -197 5675 216 
Q 5731 566 5769 1103 
Q 6019 1016 6313 947 
Q 6250 409 6181 47 
Q 6056 -641 5275 -641 
L 4513 -641 
Q 3725 -641 3725 128 
L 3725 2609 
L 2450 2609 
L 2450 2409 
Q 2450 1084 2050 447 
Q 1650 -247 469 -847 
Q 244 -572 100 -428 
Q 1181 103 1556 691 
Q 1925 1253 1925 2384 
L 1925 2609 
L 188 2609 
L 188 3084 
z
M 788 4903 
L 5638 4903 
L 5638 4428 
L 788 4428 
L 788 4903 
z
" transform="scale(0.015625)"/>
       <path id="MicrosoftYaHei-28" d="M 1531 -1100 
Q 478 100 478 1847 
Q 478 3594 1531 4841 
L 2072 4841 
Q 1016 3544 1016 1853 
Q 1016 166 2066 -1100 
L 1531 -1100 
z
" transform="scale(0.015625)"/>
       <path id="MicrosoftYaHei-79d2" d="M 44 903 
Q 616 1744 978 3059 
L 113 3059 
L 113 3484 
L 1100 3484 
L 1100 4456 
Q 703 4400 281 4353 
Q 231 4566 150 4784 
Q 1244 4878 2344 5128 
L 2481 4691 
Q 2041 4603 1563 4525 
L 1563 3484 
L 2438 3484 
L 2438 3059 
L 1563 3059 
L 1563 2178 
L 1844 2422 
Q 2094 2166 2575 1603 
L 2200 1297 
Q 1809 1794 1563 2088 
L 1563 -822 
L 1100 -822 
L 1100 2175 
Q 766 1059 256 359 
Q 156 628 44 903 
z
M 1944 -316 
Q 4481 253 5594 2284 
L 6025 2003 
Q 4756 -141 2206 -766 
Q 2088 -534 1944 -316 
z
M 4025 5278 
L 4513 5278 
L 4513 1328 
L 4025 1328 
L 4025 5278 
z
M 3075 4266 
L 3544 4141 
Q 3275 3078 2906 1997 
Q 2681 2097 2425 2172 
Q 2850 3247 3075 4266 
z
M 4950 4141 
L 5375 4341 
Q 5856 3566 6281 2722 
L 5831 2484 
Q 5444 3328 4950 4141 
z
" transform="scale(0.015625)"/>
       <path id="MicrosoftYaHei-29" d="M 78 -1100 
Q 1131 163 1131 1853 
Q 1131 3547 72 4841 
L 616 4841 
Q 1672 3603 1672 1847 
Q 1672 91 616 -1100 
L 78 -1100 
z
" transform="scale(0.015625)"/>
      </defs>
      <use xlink:href="#MicrosoftYaHei-5386"/>
      <use xlink:href="#MicrosoftYaHei-5143" x="100"/>
      <use xlink:href="#MicrosoftYaHei-28" x="200"/>
      <use xlink:href="#MicrosoftYaHei-79d2" x="233.398438"/>
      <use xlink:href="#MicrosoftYaHei-29" x="333.398438"/>
     </g>
    </g>
   </g>
   <g id="matplotlib.axis_2">
    <g id="ytick_1">
     <g id="line2d_7">
      <defs>
       <path id="mda756085f9" d="M 0 0 
L -3.5 0 
" style="stroke: #000000; stroke-width: 0.8"/>
      </defs>
      <g>
       <use xlink:href="#mda756085f9" x="38.88" y="239.04" style="stroke: #000000; stroke-width: 0.8"/>
      </g>
     </g>
     <g id="text_8">
      <!-- 0 -->
      <g transform="translate(26.015937 243.036875) scale(0.1 -0.1)">
       <use xlink:href="#MicrosoftYaHei-30"/>
      </g>
     </g>
    </g>
    <g id="ytick_2">
     <g id="line2d_8">
      <g>
       <use xlink:href="#mda756085f9" x="38.88" y="216.288" style="stroke: #000000; stroke-width: 0.8"/>
      </g>
     </g>
     <g id="text_9">
      <!-- 4 -->
      <g transform="translate(26.015937 220.284875) scale(0.1 -0.1)">
       <use xlink:href="#MicrosoftYaHei-34"/>
      </g>
     </g>
    </g>
    <g id="ytick_3">
     <g id="line2d_9">
      <g>
       <use xlink:href="#mda756085f9" x="38.88" y="193.536" style="stroke: #000000; stroke-width: 0.8"/>
      </g>
     </g>
     <g id="text_10">
      <!-- 8 -->
      <g transform="translate(26.015937 197.532875) scale(0.1 -0.1)">
       <use xlink:href="#MicrosoftYaHei-38"/>
      </g>
     </g>
    </g>
    <g id="ytick_4">
     <g id="line2d_10">
      <g>
       <use xlink:href="#mda756085f9" x="38.88" y="170.784" style="stroke: #000000; stroke-width: 0.8"/>
      </g>
     </g>
     <g id="text_11">
      <!-- 12 -->
      <g transform="translate(20.151875 174.780875) scale(0.1 -0.1)">
       <use xlink:href="#MicrosoftYaHei-31"/>
       <use xlink:href="#MicrosoftYaHei-32" x="58.642578"/>
      </g>
     </g>
    </g>
    <g id="ytick_5">
     <g id="line2d_11">
      <g>
       <use xlink:href="#mda756085f9" x="38.88" y="148.032" style="stroke: #000000; stroke-width: 0.8"/>
      </g>
     </g>
     <g id="text_12">
      <!-- 16 -->
      <g transform="translate(20.151875 152.028875) scale(0.1 -0.1)">
       <use xlink:href="#MicrosoftYaHei-31"/>
       <use xlink:href="#MicrosoftYaHei-36" x="58.642578"/>
      </g>
     </g>
    </g>
    <g id="ytick_6">
     <g id="line2d_12">
      <g>
       <use xlink:href="#mda756085f9" x="38.88" y="125.28" style="stroke: #000000; stroke-width: 0.8"/>
      </g>
     </g>
     <g id="text_13">
      <!-- 20 -->
      <g transform="translate(20.151875 129.276875) scale(0.1 -0.1)">
       <use xlink:href="#MicrosoftYaHei-32"/>
       <use xlink:href="#MicrosoftYaHei-30" x="58.642578"/>
      </g>
     </g>
    </g>
    <g id="ytick_7">
     <g id="line2d_13">
      <g>
       <use xlink:href="#mda756085f9" x="38.88" y="102.528" style="stroke: #000000; stroke-width: 0.8"/>
      </g>
     </g>
     <g id="text_14">
      <!-- 24 -->
      <g transform="translate(20.151875 106.524875) scale(0.1 -0.1)">
       <use xlink:href="#MicrosoftYaHei-32"/>
       <use xlink:href="#MicrosoftYaHei-34" x="58.642578"/>
      </g>
     </g>
    </g>
    <g id="ytick_8">
     <g id="line2d_14">
      <g>
       <use xlink:href="#mda756085f9" x="38.88" y="79.776" style="stroke: #000000; stroke-width: 0.8"/>
      </g>
     </g>
     <g id="text_15">
      <!-- 28 -->
      <g transform="translate(20.151875 83.772875) scale(0.1 -0.1)">
       <use xlink:href="#MicrosoftYaHei-32"/>
       <use xlink:href="#MicrosoftYaHei-38" x="58.642578"/>
      </g>
     </g>
    </g>
    <g id="ytick_9">
     <g id="line2d_15">
      <g>
       <use xlink:href="#mda756085f9" x="38.88" y="57.024" style="stroke: #000000; stroke-width: 0.8"/>
      </g>
     </g>
     <g id="text_16">
      <!-- 32 -->
      <g transform="translate(20.151875 61.020875) scale(0.1 -0.1)">
       <use xlink:href="#MicrosoftYaHei-33"/>
       <use xlink:href="#MicrosoftYaHei-32" x="58.642578"/>
      </g>
     </g>
    </g>
    <g id="ytick_10">
     <g id="line2d_16">
      <g>
       <use xlink:href="#mda756085f9" x="38.88" y="34.272" style="stroke: #000000; stroke-width: 0.8"/>
      </g>
     </g>
     <g id="text_17">
      <!-- 36 -->
      <g transform="translate(20.151875 38.268875) scale(0.1 -0.1)">
       <use xlink:href="#MicrosoftYaHei-33"/>
       <use xlink:href="#MicrosoftYaHei-36" x="58.642578"/>
      </g>
     </g>
    </g>
    <g id="ytick_11">
     <g id="line2d_17">
      <g>
       <use xlink:href="#mda756085f9" x="38.88" y="11.52" style="stroke: #000000; stroke-width: 0.8"/>
      </g>
     </g>
     <g id="text_18">
      <!-- 40 -->
      <g transform="translate(20.151875 15.516875) scale(0.1 -0.1)">
       <use xlink:href="#MicrosoftYaHei-34"/>
       <use xlink:href="#MicrosoftYaHei-30" x="58.642578"/>
      </g>
     </g>
    </g>
    <g id="text_19">
     <!-- 周跳数 -->
     <g transform="translate(18.665937 140.28) rotate(-90) scale(0.1 -0.1)">
      <defs>
       <path id="MicrosoftYaHei-5468" d="M 1175 2753 
Q 1175 1166 1038 572 
Q 888 -153 413 -822 
Q 231 -591 56 -403 
Q 450 197 575 803 
Q 675 1328 675 2634 
L 675 5059 
L 5981 5059 
L 5981 72 
Q 5981 -734 5206 -747 
Q 4763 -753 4219 -734 
Q 4194 -547 4119 -228 
Q 4725 -266 5050 -266 
Q 5494 -266 5494 153 
L 5494 4609 
L 1175 4609 
L 1175 2753 
z
M 1988 1897 
L 4663 1897 
L 4663 209 
L 2463 209 
L 2463 -191 
L 1988 -191 
L 1988 1897 
z
M 1475 2841 
L 3081 2841 
L 3081 3472 
L 1763 3472 
L 1763 3897 
L 3081 3897 
L 3081 4447 
L 3569 4447 
L 3569 3897 
L 4888 3897 
L 4888 3472 
L 3569 3472 
L 3569 2841 
L 5181 2841 
L 5181 2416 
L 1475 2416 
L 1475 2841 
z
M 4188 634 
L 4188 1472 
L 2463 1472 
L 2463 634 
L 4188 634 
z
" transform="scale(0.015625)"/>
       <path id="MicrosoftYaHei-8df3" d="M 63 109 
Q 231 131 406 153 
L 406 2453 
L 813 2453 
L 813 213 
Q 1050 247 1294 288 
L 1294 3097 
L 931 3097 
L 931 2891 
L 525 2891 
L 525 5009 
L 2256 5009 
L 2256 3097 
L 1713 3097 
L 1713 2159 
L 2406 2159 
L 2406 1766 
L 1713 1766 
L 1713 356 
Q 2056 416 2406 484 
Q 2406 234 2419 53 
Q 1269 -141 175 -359 
L 63 109 
z
M 4419 5303 
L 4881 5303 
L 4881 2353 
Q 5556 1966 6163 1566 
L 5844 1134 
Q 5384 1475 4881 1806 
L 4881 191 
Q 4869 -234 5200 -209 
L 5463 -209 
Q 5769 -216 5819 134 
Q 5863 416 5894 878 
Q 6100 778 6350 697 
Q 6313 334 6256 -3 
Q 6156 -666 5538 -653 
L 5113 -653 
Q 4388 -684 4419 141 
L 4419 5303 
z
M 3363 5284 
L 3819 5284 
L 3819 2553 
Q 3819 1509 3644 766 
Q 3375 -253 2431 -866 
Q 2294 -666 2106 -441 
Q 3238 228 3316 1663 
Q 2894 1281 2494 922 
L 2150 1316 
Q 2706 1722 3363 2288 
L 3363 5284 
z
M 1850 3459 
L 1850 4647 
L 931 4647 
L 931 3459 
L 1850 3459 
z
M 5663 4378 
L 6081 4159 
Q 5763 3503 5388 2897 
L 4988 3141 
Q 5369 3722 5663 4378 
z
M 2350 4172 
L 2763 4366 
Q 3081 3741 3313 3141 
L 2863 2922 
Q 2638 3584 2350 4172 
z
" transform="scale(0.015625)"/>
       <path id="MicrosoftYaHei-6570" d="M 4175 5303 
L 4675 5228 
Q 4544 4622 4369 4097 
L 6281 4097 
L 6281 3672 
L 5888 3672 
Q 5731 1834 5088 753 
Q 5594 66 6375 -372 
Q 6175 -647 6038 -866 
Q 5275 -372 4769 309 
Q 4194 -403 3400 -928 
Q 3263 -747 3044 -534 
Q 3919 41 4463 772 
Q 3956 1647 3794 2791 
Q 3663 2559 3519 2359 
Q 3394 2541 3206 2759 
Q 3931 3803 4175 5303 
z
M 150 1697 
L 1100 1697 
Q 1238 1934 1369 2184 
L 1819 2041 
Q 1719 1866 1619 1697 
L 3150 1697 
L 3150 1291 
Q 2913 678 2431 216 
Q 2775 53 3131 -109 
L 2856 -541 
Q 2469 -322 2050 -103 
Q 1344 -609 269 -903 
Q 169 -703 56 -466 
Q 969 -259 1600 128 
Q 1063 403 475 691 
Q 675 978 863 1284 
L 150 1284 
L 150 1697 
z
M 219 3847 
L 1656 3847 
L 1656 5247 
L 2119 5247 
L 2119 3847 
L 3319 3847 
L 3319 3434 
L 2119 3434 
L 2119 3053 
L 2306 3266 
Q 2888 2841 3281 2516 
L 2981 2166 
Q 2638 2491 2119 2897 
L 2119 2184 
L 1656 2184 
L 1656 3059 
Q 1088 2466 331 2016 
Q 213 2197 63 2397 
Q 850 2822 1506 3434 
L 219 3434 
L 219 3847 
z
M 5388 3672 
L 4219 3672 
Q 4188 3591 4150 3516 
Q 4263 2191 4775 1247 
Q 5275 2159 5388 3672 
z
M 1088 834 
Q 1531 634 2000 416 
Q 2431 784 2675 1284 
L 1375 1284 
Q 1231 1053 1088 834 
z
M 3038 5091 
L 3425 4834 
Q 3081 4384 2738 4003 
Q 2594 4128 2400 4266 
Q 2725 4647 3038 5091 
z
M 381 4816 
L 738 5059 
Q 1019 4716 1319 4322 
L 931 4047 
Q 656 4453 381 4816 
z
" transform="scale(0.015625)"/>
      </defs>
      <use xlink:href="#MicrosoftYaHei-5468"/>
      <use xlink:href="#MicrosoftYaHei-8df3" x="100"/>
      <use xlink:href="#MicrosoftYaHei-6570" x="200"/>
     </g>
    </g>
   </g>
   <g id="line2d_18">
    <path d="M 38.88 45.648 
L 39.184014 239.04 
L 40.704083 239.04 
L 41.008097 233.352 
L 41.312111 239.04 
L 53.472667 239.04 
L 53.776681 233.352 
L 54.080695 239.04 
L 75.361668 239.04 
L 75.665682 233.352 
L 75.969696 239.04 
L 92.082433 239.04 
L 92.386447 233.352 
L 92.69046 239.04 
L 92.994474 239.04 
L 93.298488 233.352 
L 93.602502 233.352 
L 93.906516 239.04 
L 94.21053 233.352 
L 94.514544 239.04 
L 102.114891 239.04 
L 102.418905 233.352 
L 102.722919 239.04 
L 117.315586 239.04 
L 117.6196 233.352 
L 117.923614 233.352 
L 118.227628 239.04 
L 124.003892 239.04 
L 124.307906 233.352 
L 124.61192 233.352 
L 124.915934 239.04 
L 125.219948 239.04 
L 125.523962 233.352 
L 125.827976 239.04 
L 148.02099 239.04 
L 148.325004 51.336 
L 148.629018 239.04 
L 180.854492 239.04 
L 181.158506 233.352 
L 181.46252 233.352 
L 181.766533 239.04 
L 189.366881 239.04 
L 189.670895 233.352 
L 189.974909 239.04 
L 198.791312 239.04 
L 199.095326 233.352 
L 199.39934 239.04 
L 206.087646 239.04 
L 206.391659 233.352 
L 206.695673 239.04 
L 218.248202 239.04 
L 218.552215 233.352 
L 218.856229 239.04 
L 221.288341 239.04 
L 221.592354 233.352 
L 221.896368 239.04 
L 224.32848 239.04 
L 224.632493 233.352 
L 224.936507 239.04 
L 229.496716 239.04 
L 229.80073 233.352 
L 230.104744 239.04 
L 231.624813 239.04 
L 231.928827 233.352 
L 232.232841 239.04 
L 232.536855 239.04 
L 232.840869 233.352 
L 233.144883 239.04 
L 251.689731 239.04 
L 251.993745 233.352 
L 252.297758 239.04 
L 257.465995 239.04 
L 257.770009 34.272 
L 258.074023 239.04 
L 279.65901 239.04 
L 279.963023 227.664 
L 280.267037 239.04 
L 282.395135 239.04 
L 282.699149 233.352 
L 283.003162 239.04 
L 319.788844 239.04 
L 320.092858 233.352 
L 320.396872 239.04 
L 327.99722 239.04 
L 328.301234 233.352 
L 328.605248 239.04 
L 340.765804 239.04 
L 341.069818 233.352 
L 341.373831 239.04 
L 366.910999 239.04 
L 367.215013 17.208 
L 367.519027 239.04 
L 384.543805 239.04 
L 384.847819 233.352 
L 386.063875 233.352 
L 386.367889 239.04 
L 388.495986 239.04 
L 388.495986 239.04 
" clip-path="url(#pc0bac7faa4)" style="fill: none; stroke: #ff4500; stroke-width: 1.5; stroke-linecap: square"/>
   </g>
   <g id="patch_3">
    <path d="M 38.88 239.04 
L 38.88 11.52 
" style="fill: none; stroke: #000000; stroke-width: 0.8; stroke-linejoin: miter; stroke-linecap: square"/>
   </g>
   <g id="patch_4">
    <path d="M 388.8 239.04 
L 388.8 11.52 
" style="fill: none; stroke: #000000; stroke-width: 0.8; stroke-linejoin: miter; stroke-linecap: square"/>
   </g>
   <g id="patch_5">
    <path d="M 38.88 239.04 
L 388.8 239.04 
" style="fill: none; stroke: #000000; stroke-width: 0.8; stroke-linejoin: miter; stroke-linecap: square"/>
   </g>
   <g id="patch_6">
    <path d="M 38.88 11.52 
L 388.8 11.52 
" style="fill: none; stroke: #000000; stroke-width: 0.8; stroke-linejoin: miter; stroke-linecap: square"/>
   </g>
  </g>
  <g id="axes_2">
   <g id="matplotlib.axis_3">
    <g id="ytick_12">
     <g id="line2d_19">
      <defs>
       <path id="md2bdb670f4" d="M 0 0 
L 3.5 0 
" style="stroke: #000000; stroke-width: 0.8"/>
      </defs>
      <g>
       <use xlink:href="#md2bdb670f4" x="388.8" y="219.331753" style="stroke: #000000; stroke-width: 0.8"/>
      </g>
     </g>
     <g id="text_20">
      <!-- -40 -->
      <g transform="translate(395.8 223.328628) scale(0.1 -0.1)">
       <defs>
        <path id="MicrosoftYaHei-2d" d="M 2328 1681 
L 488 1681 
L 488 2153 
L 2328 2153 
L 2328 1681 
z
" transform="scale(0.015625)"/>
       </defs>
       <use xlink:href="#MicrosoftYaHei-2d"/>
       <use xlink:href="#MicrosoftYaHei-34" x="43.261719"/>
       <use xlink:href="#MicrosoftYaHei-30" x="101.904297"/>
      </g>
     </g>
    </g>
    <g id="ytick_13">
     <g id="line2d_20">
      <g>
       <use xlink:href="#md2bdb670f4" x="388.8" y="185.639561" style="stroke: #000000; stroke-width: 0.8"/>
      </g>
     </g>
     <g id="text_21">
      <!-- -30 -->
      <g transform="translate(395.8 189.636436) scale(0.1 -0.1)">
       <use xlink:href="#MicrosoftYaHei-2d"/>
       <use xlink:href="#MicrosoftYaHei-33" x="43.261719"/>
       <use xlink:href="#MicrosoftYaHei-30" x="101.904297"/>
      </g>
     </g>
    </g>
    <g id="ytick_14">
     <g id="line2d_21">
      <g>
       <use xlink:href="#md2bdb670f4" x="388.8" y="151.94737" style="stroke: #000000; stroke-width: 0.8"/>
      </g>
     </g>
     <g id="text_22">
      <!-- -20 -->
      <g transform="translate(395.8 155.944245) scale(0.1 -0.1)">
       <use xlink:href="#MicrosoftYaHei-2d"/>
       <use xlink:href="#MicrosoftYaHei-32" x="43.261719"/>
       <use xlink:href="#MicrosoftYaHei-30" x="101.904297"/>
      </g>
     </g>
    </g>
    <g id="ytick_15">
     <g id="line2d_22">
      <g>
       <use xlink:href="#md2bdb670f4" x="388.8" y="118.255178" style="stroke: #000000; stroke-width: 0.8"/>
      </g>
     </g>
     <g id="text_23">
      <!-- -10 -->
      <g transform="translate(395.8 122.252053) scale(0.1 -0.1)">
       <use xlink:href="#MicrosoftYaHei-2d"/>
       <use xlink:href="#MicrosoftYaHei-31" x="43.261719"/>
       <use xlink:href="#MicrosoftYaHei-30" x="101.904297"/>
      </g>
     </g>
    </g>
    <g id="ytick_16">
     <g id="line2d_23">
      <g>
       <use xlink:href="#md2bdb670f4" x="388.8" y="84.562987" style="stroke: #000000; stroke-width: 0.8"/>
      </g>
     </g>
     <g id="text_24">
      <!-- 0 -->
      <g transform="translate(395.8 88.559862) scale(0.1 -0.1)">
       <use xlink:href="#MicrosoftYaHei-30"/>
      </g>
     </g>
    </g>
    <g id="ytick_17">
     <g id="line2d_24">
      <g>
       <use xlink:href="#md2bdb670f4" x="388.8" y="50.870795" style="stroke: #000000; stroke-width: 0.8"/>
      </g>
     </g>
     <g id="text_25">
      <!-- 10 -->
      <g transform="translate(395.8 54.86767) scale(0.1 -0.1)">
       <use xlink:href="#MicrosoftYaHei-31"/>
       <use xlink:href="#MicrosoftYaHei-30" x="58.642578"/>
      </g>
     </g>
    </g>
    <g id="ytick_18">
     <g id="line2d_25">
      <g>
       <use xlink:href="#md2bdb670f4" x="388.8" y="17.178604" style="stroke: #000000; stroke-width: 0.8"/>
      </g>
     </g>
     <g id="text_26">
      <!-- 20 -->
      <g transform="translate(395.8 21.175479) scale(0.1 -0.1)">
       <use xlink:href="#MicrosoftYaHei-32"/>
       <use xlink:href="#MicrosoftYaHei-30" x="58.642578"/>
      </g>
     </g>
    </g>
    <g id="text_27">
     <!-- 平均多路径误差(cm) -->
     <g transform="translate(418.848437 170.812812) rotate(-90) scale(0.1 -0.1)">
      <defs>
       <path id="MicrosoftYaHei-5e73" d="M 169 1934 
L 2938 1934 
L 2938 4547 
L 450 4547 
L 450 5028 
L 5975 5028 
L 5975 4547 
L 3463 4547 
L 3463 1934 
L 6250 1934 
L 6250 1453 
L 3463 1453 
L 3463 -847 
L 2938 -847 
L 2938 1453 
L 169 1453 
L 169 1934 
z
M 3950 2559 
Q 4638 3284 5188 4159 
L 5656 3859 
Q 4950 2891 4338 2234 
L 3950 2559 
z
M 769 3859 
L 1163 4134 
Q 1863 3316 2369 2553 
L 1925 2222 
Q 1444 3003 769 3859 
z
" transform="scale(0.015625)"/>
       <path id="MicrosoftYaHei-5747" d="M 2244 2803 
Q 2931 3953 3338 5322 
L 3838 5172 
Q 3691 4744 3531 4347 
L 6013 4347 
Q 5925 1053 5875 297 
Q 5831 -697 4806 -697 
Q 4188 -697 3706 -672 
Q 3669 -422 3606 -141 
L 3625 -141 
Q 4250 -209 4775 -209 
Q 5350 -209 5394 378 
Q 5456 1447 5513 3891 
L 3341 3891 
Q 3028 3172 2675 2572 
Q 2481 2691 2244 2803 
z
M 81 428 
Q 559 600 1006 769 
L 1006 3253 
L 169 3253 
L 169 3697 
L 1006 3697 
L 1006 5259 
L 1469 5259 
L 1469 3697 
L 2281 3697 
L 2281 3253 
L 1469 3253 
L 1469 947 
Q 1922 1125 2338 1303 
Q 2350 991 2369 784 
Q 1363 403 250 -53 
L 81 428 
z
M 2513 853 
Q 3769 1353 5119 1934 
Q 5150 1641 5188 1434 
Q 4031 947 2706 359 
L 2513 853 
z
M 3138 2909 
L 3481 3216 
Q 4025 2716 4531 2216 
L 4125 1859 
Q 3644 2409 3138 2909 
z
" transform="scale(0.015625)"/>
       <path id="MicrosoftYaHei-591a" d="M 3719 2803 
L 4338 2803 
Q 4050 2522 3744 2272 
L 6019 2272 
L 6019 1816 
Q 4006 -366 650 -891 
Q 538 -666 369 -422 
Q 1894 -203 3100 322 
Q 2919 559 2581 903 
L 2956 1178 
Q 3275 847 3538 522 
Q 4588 1059 5344 1834 
L 3200 1834 
Q 2100 1009 881 484 
Q 769 666 581 909 
Q 2319 1609 3719 2803 
z
M 2775 5316 
L 3406 5316 
Q 3088 4972 2756 4672 
L 5700 4672 
L 5700 4247 
Q 3550 2516 481 1666 
Q 350 1916 194 2103 
Q 1481 2441 2506 2872 
Q 2281 3122 1913 3484 
L 2263 3759 
Q 2631 3403 2944 3066 
Q 4088 3584 4950 4234 
L 2256 4234 
Q 1606 3678 713 3172 
Q 575 3359 369 3566 
Q 1800 4328 2775 5316 
z
" transform="scale(0.015625)"/>
       <path id="MicrosoftYaHei-8def" d="M 481 2416 
L 894 2416 
L 894 106 
Q 1147 144 1413 184 
L 1413 3041 
L 913 3041 
L 913 2834 
L 463 2834 
L 463 4953 
L 2513 4953 
L 2513 3041 
L 1850 3041 
L 1850 1984 
L 2500 1984 
L 2500 1559 
L 1850 1559 
L 1850 250 
Q 2241 313 2650 384 
Q 2638 172 2638 -72 
Q 1419 -278 225 -484 
L 100 3 
Q 288 25 481 50 
L 481 2416 
z
M 2575 3428 
Q 3231 4234 3713 5359 
L 4175 5191 
Q 4041 4909 3906 4653 
L 5881 4653 
L 5881 4234 
Q 5472 3463 4797 2809 
Q 5413 2388 6313 2178 
Q 6188 1903 6106 1659 
Q 5125 1994 4441 2500 
Q 3759 1972 2788 1559 
Q 2725 1684 2538 2003 
Q 3384 2306 4072 2816 
Q 3694 3191 3391 3756 
Q 3138 3366 2888 3059 
Q 2738 3259 2575 3428 
z
M 3038 1584 
L 5756 1584 
L 5756 -847 
L 5288 -847 
L 5288 -547 
L 3506 -547 
L 3506 -847 
L 3038 -847 
L 3038 1584 
z
M 5288 1147 
L 3506 1147 
L 3506 -109 
L 5288 -109 
L 5288 1147 
z
M 2063 3466 
L 2063 4528 
L 913 4528 
L 913 3466 
L 2063 3466 
z
M 5344 4228 
L 3675 4228 
Q 3656 4197 3638 4166 
Q 3953 3531 4425 3103 
Q 4988 3606 5344 4228 
z
" transform="scale(0.015625)"/>
       <path id="MicrosoftYaHei-5f84" d="M 2388 4466 
L 2388 4891 
L 5738 4891 
L 5738 4459 
Q 5216 3866 4619 3391 
Q 5559 2888 6338 2428 
L 6038 1972 
Q 5256 2494 4216 3091 
Q 3253 2422 2106 2041 
Q 2000 2247 1850 2459 
Q 3894 3153 5025 4466 
L 2388 4466 
z
M 1931 -66 
L 3881 -66 
L 3881 1403 
L 2288 1403 
L 2288 1828 
L 5950 1828 
L 5950 1403 
L 4344 1403 
L 4344 -66 
L 6300 -66 
L 6300 -491 
L 1931 -491 
L 1931 -66 
z
M 38 1572 
Q 975 2353 1750 3809 
L 2175 3541 
Q 1844 2953 1475 2444 
L 1475 -816 
L 994 -816 
L 994 1831 
Q 638 1419 250 1066 
Q 156 1328 38 1572 
z
M 106 3616 
Q 1038 4359 1638 5391 
L 2063 5116 
Q 1356 3997 344 3134 
Q 238 3359 106 3616 
z
" transform="scale(0.015625)"/>
       <path id="MicrosoftYaHei-8bef" d="M 1819 1484 
L 3706 1484 
Q 3750 1769 3756 2222 
L 2044 2222 
L 2044 2659 
L 6069 2659 
L 6069 2222 
L 4244 2222 
Q 4234 1753 4203 1484 
L 6288 1484 
L 6288 1047 
L 4356 1047 
Q 4913 -53 6363 -359 
Q 6138 -628 5981 -828 
Q 4538 -406 3984 850 
Q 3569 -272 1969 -847 
Q 1819 -653 1631 -441 
Q 3188 53 3588 1047 
L 1819 1047 
L 1819 1484 
z
M 2325 5034 
L 5750 5034 
L 5750 2991 
L 5275 2991 
L 5275 3272 
L 2800 3272 
L 2800 2991 
L 2325 2991 
L 2325 5034 
z
M 2044 784 
Q 2063 459 2088 247 
Q 1294 -272 925 -584 
L 631 -166 
Q 844 9 844 378 
L 844 2716 
L 100 2716 
L 100 3166 
L 1325 3166 
L 1325 284 
Q 1763 578 2044 784 
z
M 5275 4616 
L 2800 4616 
L 2800 3691 
L 5275 3691 
L 5275 4616 
z
M 831 5153 
Q 1281 4697 1725 4184 
L 1294 3822 
Q 881 4347 450 4822 
L 831 5153 
z
" transform="scale(0.015625)"/>
       <path id="MicrosoftYaHei-5dee" d="M 1094 -172 
L 3419 -172 
L 3419 891 
L 1813 891 
L 1813 1088 
Q 1200 394 331 -197 
Q 206 3 31 247 
Q 1213 1028 1859 1984 
L 200 1984 
L 200 2409 
L 2119 2409 
Q 2275 2694 2409 3028 
L 638 3028 
L 638 3447 
L 2569 3447 
Q 2666 3728 2750 4041 
L 488 4041 
L 488 4466 
L 2075 4466 
Q 1813 4797 1513 5122 
L 1869 5397 
Q 2231 5047 2563 4672 
L 2278 4466 
L 4219 4466 
L 3975 4684 
Q 4344 5047 4631 5403 
L 5056 5122 
Q 4738 4772 4413 4466 
L 6050 4466 
L 6050 4041 
L 3291 4041 
Q 3206 3731 3109 3447 
L 5813 3447 
L 5813 3028 
L 2963 3028 
Q 2838 2700 2697 2409 
L 6294 2409 
L 6294 1984 
L 2469 1984 
Q 2259 1634 1997 1309 
L 5613 1309 
L 5613 891 
L 3925 891 
L 3925 -172 
L 6213 -172 
L 6213 -597 
L 1094 -597 
L 1094 -172 
z
" transform="scale(0.015625)"/>
       <path id="MicrosoftYaHei-63" d="M 2934 156 
Q 2538 -81 1978 -81 
Q 1228 -81 772 400 
Q 316 881 316 1647 
Q 316 2497 808 3017 
Q 1300 3538 2125 3538 
Q 2600 3538 2938 3369 
L 2938 2763 
Q 2572 3031 2125 3031 
Q 1600 3031 1270 2667 
Q 941 2303 941 1697 
Q 941 1100 1252 762 
Q 1563 425 2091 425 
Q 2538 425 2934 719 
L 2934 156 
z
" transform="scale(0.015625)"/>
       <path id="MicrosoftYaHei-6d" d="M 5522 0 
L 4909 0 
L 4909 1984 
Q 4909 2547 4734 2789 
Q 4559 3031 4159 3031 
Q 3822 3031 3581 2715 
Q 3341 2400 3341 1969 
L 3341 0 
L 2728 0 
L 2728 2047 
Q 2728 3031 1969 3031 
Q 1619 3031 1389 2731 
Q 1159 2431 1159 1966 
L 1159 0 
L 547 0 
L 547 3456 
L 1159 3456 
L 1159 2909 
L 1172 2909 
Q 1541 3538 2250 3538 
Q 2597 3538 2862 3347 
Q 3128 3156 3231 2831 
Q 3616 3538 4381 3538 
Q 5522 3538 5522 2131 
L 5522 0 
z
" transform="scale(0.015625)"/>
      </defs>
      <use xlink:href="#MicrosoftYaHei-5e73"/>
      <use xlink:href="#MicrosoftYaHei-5747" x="100"/>
      <use xlink:href="#MicrosoftYaHei-591a" x="200"/>
      <use xlink:href="#MicrosoftYaHei-8def" x="300"/>
      <use xlink:href="#MicrosoftYaHei-5f84" x="400"/>
      <use xlink:href="#MicrosoftYaHei-8bef" x="500"/>
      <use xlink:href="#MicrosoftYaHei-5dee" x="600"/>
      <use xlink:href="#MicrosoftYaHei-28" x="700"/>
      <use xlink:href="#MicrosoftYaHei-63" x="733.398438"/>
      <use xlink:href="#MicrosoftYaHei-6d" x="783.544922"/>
      <use xlink:href="#MicrosoftYaHei-29" x="877.246094"/>
     </g>
    </g>
   </g>
   <g id="line2d_26">
    <path d="M 38.88 81.800227 
L 39.184014 82.844685 
L 39.488028 76.00517 
L 39.792042 74.118407 
L 40.096056 79.677619 
L 40.40007 75.331326 
L 40.704083 74.051023 
L 41.008097 90.492812 
L 41.312111 83.855451 
L 41.616125 85.371599 
L 41.920139 82.036072 
L 42.224153 89.717892 
L 42.528167 85.405291 
L 43.136195 98.039863 
L 43.440209 84.562987 
L 43.744222 105.317377 
L 44.048236 94.434799 
L 44.35225 98.309401 
L 44.656264 110.303821 
L 44.960278 114.515345 
L 45.264292 101.847081 
L 45.568306 98.275709 
L 45.87232 97.332327 
L 46.176334 90.054814 
L 46.480348 89.07774 
L 46.784361 81.463305 
L 47.088375 79.408081 
L 47.696403 95.512949 
L 48.000417 117.446565 
L 48.304431 110.236436 
L 48.608445 111.011357 
L 48.912459 122.9047 
L 49.216473 119.602866 
L 49.520487 121.455936 
L 49.8245 113.639348 
L 50.128514 102.015542 
L 50.432528 100.667854 
L 50.736542 104.104458 
L 51.040556 99.52232 
L 51.34457 98.477862 
L 51.648584 93.188188 
L 51.952598 98.275709 
L 52.256612 90.358044 
L 52.560626 76.982243 
L 52.864639 72.063184 
L 53.168653 70.547035 
L 53.472667 70.614419 
L 53.776681 82.507763 
L 54.080695 81.934996 
L 54.384709 78.4647 
L 54.688723 72.46749 
L 54.992737 55.924624 
L 55.600765 63.134753 
L 55.904778 76.847475 
L 56.208792 77.85824 
L 56.81682 65.560591 
L 57.120834 69.435193 
L 57.424848 66.200742 
L 58.032876 85.068369 
L 58.33689 84.76514 
L 58.640904 93.558802 
L 58.944917 77.790856 
L 59.248931 71.962107 
L 59.552945 80.452539 
L 59.856959 82.608839 
L 60.160973 70.142729 
L 60.464987 77.656087 
L 60.769001 63.370598 
L 61.073015 38.370992 
L 61.377029 34.563774 
L 61.681043 21.861818 
L 62.28907 48.074343 
L 62.593084 54.678013 
L 62.897098 42.919438 
L 63.201112 51.746792 
L 63.505126 51.915253 
L 63.80914 51.140333 
L 64.113154 55.655086 
L 64.417168 43.626974 
L 64.721182 49.961106 
L 65.025195 44.33451 
L 65.329209 43.896511 
L 65.633223 50.298028 
L 65.937237 46.827732 
L 66.241251 60.304609 
L 66.545265 65.425822 
L 66.849279 64.179211 
L 67.153293 55.385549 
L 67.457307 51.578331 
L 67.761321 55.857239 
L 68.065334 63.067368 
L 68.369348 57.373388 
L 68.673362 60.338301 
L 68.977376 60.035071 
L 69.28139 76.510553 
L 69.585404 78.431008 
L 69.889418 77.993009 
L 70.193432 86.045443 
L 70.497446 84.124988 
L 70.80146 72.265337 
L 71.105474 91.402501 
L 71.409487 85.135754 
L 71.713501 60.540454 
L 72.321529 41.807596 
L 72.625543 46.861424 
L 72.929557 37.562379 
L 73.233571 48.748187 
L 73.537585 46.692963 
L 73.841599 47.771113 
L 74.75364 81.092691 
L 75.057654 63.673828 
L 75.361668 76.948551 
L 75.665682 71.726262 
L 76.27371 80.351463 
L 76.577724 76.982243 
L 76.881738 57.137543 
L 77.489765 71.288263 
L 77.793779 74.859635 
L 78.097793 81.496997 
L 78.401807 98.713707 
L 78.705821 80.621 
L 79.009835 90.290659 
L 79.313849 88.403896 
L 79.617863 87.898514 
L 79.921877 86.112827 
L 80.225891 74.825943 
L 80.529904 78.599469 
L 80.833918 79.104852 
L 81.137932 81.800227 
L 81.441946 73.84887 
L 81.74596 62.865215 
L 82.353988 52.589097 
L 82.658002 54.576936 
L 82.962016 51.982637 
L 83.26603 67.716891 
L 83.570043 61.584912 
L 84.178071 73.84887 
L 84.482085 70.715496 
L 84.786099 83.147915 
L 85.090113 75.129173 
L 85.394127 75.432403 
L 85.698141 80.519924 
L 86.002155 74.960712 
L 86.306169 74.32056 
L 86.610182 79.340697 
L 86.914196 77.38655 
L 87.21821 82.069764 
L 87.522224 81.463305 
L 87.826238 83.013146 
L 88.130252 88.942971 
L 88.73828 103.868612 
L 89.042294 94.906489 
L 89.346308 98.545246 
L 89.954335 73.680409 
L 90.258349 78.970083 
L 90.562363 80.486231 
L 90.866377 72.096876 
L 91.474405 72.096876 
L 91.778419 90.15589 
L 92.082433 88.471281 
L 92.386447 102.285079 
L 92.69046 77.184397 
L 92.994474 86.045443 
L 93.298488 85.405291 
L 93.602502 81.968688 
L 93.906516 76.78009 
L 94.514544 114.885959 
L 94.818558 107.237831 
L 95.122572 106.260758 
L 95.426586 107.776907 
L 95.730599 121.725474 
L 96.034613 116.90749 
L 96.338627 114.245807 
L 96.642641 118.086717 
L 97.250669 105.553222 
L 97.554683 89.6842 
L 97.858697 87.359438 
L 98.162711 65.156284 
L 98.466725 87.628976 
L 98.770738 87.864821 
L 99.074752 90.358044 
L 99.378766 81.092691 
L 99.68278 96.254177 
L 99.986794 92.952342 
L 100.290808 79.037467 
L 100.594822 80.081925 
L 100.898836 85.910674 
L 101.20285 87.730053 
L 101.506864 92.581728 
L 101.810877 90.054814 
L 102.114891 76.645322 
L 102.418905 89.178817 
L 102.722919 81.833919 
L 103.026933 91.06558 
L 103.330947 86.988824 
L 103.938975 109.394132 
L 104.242989 102.318771 
L 105.15503 89.920045 
L 105.459044 104.205534 
L 105.763058 96.220485 
L 106.067072 84.091296 
L 106.371086 77.453934 
L 106.6751 86.045443 
L 107.283128 115.256573 
L 107.587142 113.740424 
L 107.891156 116.536876 
L 108.195169 102.689386 
L 108.499183 104.811994 
L 108.803197 102.150311 
L 109.107211 121.186399 
L 109.411225 107.204139 
L 109.715239 113.100273 
L 110.019253 105.351069 
L 110.323267 115.593495 
L 110.627281 108.75398 
L 110.931295 99.252782 
L 111.235308 119.434405 
L 111.539322 126.812995 
L 111.843336 120.209325 
L 112.14735 100.263548 
L 112.451364 104.44138 
L 112.755378 102.352464 
L 113.059392 102.45354 
L 113.363406 111.011357 
L 113.66742 112.29166 
L 113.971434 107.338908 
L 114.275447 88.336512 
L 114.579461 79.980849 
L 114.883475 77.487626 
L 115.187489 79.980849 
L 115.491503 84.327141 
L 115.795517 75.162865 
L 116.099531 76.679014 
L 116.403545 74.455329 
L 116.707559 68.32335 
L 117.011573 70.580727 
L 117.315586 89.953737 
L 117.6196 71.894723 
L 117.923614 93.828339 
L 118.227628 90.290659 
L 118.531642 90.829734 
L 118.835656 81.800227 
L 119.13967 91.907884 
L 119.443684 74.489021 
L 119.747698 69.233039 
L 120.051712 61.753373 
L 120.355725 71.591493 
L 120.659739 72.669643 
L 120.963753 84.664063 
L 121.267767 78.565776 
L 121.875795 72.77072 
L 122.483823 95.37818 
L 122.787837 82.844685 
L 123.091851 93.592494 
L 123.395864 90.76235 
L 124.003892 111.179818 
L 124.307906 92.581728 
L 124.61192 89.616815 
L 124.915934 83.585913 
L 125.219948 85.607445 
L 125.523962 88.774511 
L 125.827976 81.058999 
L 126.13199 67.683199 
L 126.436003 75.769325 
L 126.740017 65.257361 
L 127.044031 74.489021 
L 127.348045 75.668248 
L 127.956073 82.608839 
L 128.564101 56.160469 
L 129.172129 69.671038 
L 129.476142 75.263942 
L 130.08417 101.67862 
L 130.388184 101.644928 
L 130.692198 97.702941 
L 130.996212 99.286474 
L 131.300226 108.383366 
L 131.60424 98.343093 
L 131.908254 107.743214 
L 132.212268 102.925231 
L 132.516281 102.655693 
L 132.820295 88.808203 
L 133.124309 66.065973 
L 133.428323 80.216694 
L 133.732337 67.2452 
L 134.036351 65.998589 
L 134.340365 71.220879 
L 134.644379 64.987823 
L 134.948393 63.977058 
L 135.252407 66.773509 
L 135.556421 79.104852 
L 135.860434 70.715496 
L 136.468462 64.01075 
L 136.772476 75.129173 
L 137.07649 79.913464 
L 137.380504 71.726262 
L 137.684518 82.945761 
L 137.988532 83.68699 
L 138.292546 85.102062 
L 138.59656 85.54006 
L 139.204587 90.358044 
L 139.508601 84.866216 
L 139.812615 90.930811 
L 140.116629 93.659878 
L 140.420643 94.232646 
L 140.724657 81.261152 
L 141.636699 75.196557 
L 141.940712 86.685595 
L 142.244726 78.869006 
L 142.54874 93.592494 
L 143.156768 69.536269 
L 143.460782 74.758559 
L 143.764796 74.657482 
L 144.06881 75.971478 
L 144.372824 86.416057 
L 144.980851 97.366019 
L 145.284865 94.839105 
L 145.588879 87.157285 
L 145.892893 75.533479 
L 146.196907 72.939181 
L 146.500921 71.625185 
L 146.804935 69.266732 
L 147.108949 56.160469 
L 147.412963 63.842289 
L 147.716977 58.451538 
L 148.02099 59.024305 
L 148.629018 70.547035 
L 148.933032 67.211508 
L 149.237046 73.949946 
L 149.54106 74.657482 
L 149.845074 80.621 
L 150.149088 72.602259 
L 150.453102 76.577937 
L 150.757116 83.046838 
L 151.061129 92.345883 
L 151.365143 81.968688 
L 151.669157 76.881167 
L 151.973171 80.856846 
L 152.277185 73.006565 
L 152.581199 70.78288 
L 152.885213 75.870401 
L 153.189227 66.503972 
L 153.797255 83.855451 
L 154.101268 87.292054 
L 154.709296 46.827732 
L 155.01331 39.684987 
L 155.925352 57.642926 
L 156.229366 59.664457 
L 156.53338 57.946155 
L 156.837394 57.339696 
L 157.141407 60.574146 
L 157.445421 51.510947 
L 157.749435 71.254571 
L 158.053449 67.615814 
L 158.661477 87.69636 
L 158.965491 81.564382 
L 159.269505 93.390341 
L 159.573519 94.502183 
L 159.877533 90.593889 
L 160.181546 100.229856 
L 160.48556 94.165261 
L 160.789574 102.082926 
L 161.093588 119.939788 
L 161.397602 124.58931 
L 161.701616 115.35765 
L 162.00563 100.937392 
L 162.309644 99.488627 
L 162.613658 101.37539 
L 162.917672 122.163472 
L 163.221685 118.120409 
L 163.525699 112.224276 
L 163.829713 114.043654 
L 164.133727 106.260758 
L 164.437741 110.842896 
L 164.741755 111.954738 
L 165.045769 122.096088 
L 165.349783 115.155496 
L 165.957811 124.757771 
L 166.261825 132.911281 
L 166.565838 133.147127 
L 167.173866 141.368021 
L 167.47788 138.504185 
L 167.781894 141.50279 
L 168.085908 133.34928 
L 168.693936 137.324958 
L 169.301964 109.663669 
L 169.605977 103.161076 
L 170.214005 120.310402 
L 170.518019 118.491023 
L 171.126047 97.332327 
L 171.430061 91.436194 
L 171.734075 87.965898 
L 172.038089 105.2163 
L 172.646116 95.479257 
L 172.95013 100.364624 
L 173.254144 99.118013 
L 173.558158 109.090902 
L 173.862172 101.105853 
L 174.166186 100.162471 
L 174.4702 97.130174 
L 174.774214 92.008961 
L 175.078228 100.364624 
L 175.382242 88.774511 
L 175.686255 90.593889 
L 176.294283 101.139545 
L 176.598297 94.839105 
L 176.902311 95.07495 
L 177.206325 88.033282 
L 177.510339 75.331326 
L 177.814353 84.192372 
L 178.118367 88.437589 
L 178.422381 94.535875 
L 178.726394 83.922835 
L 179.030408 78.532084 
L 179.638436 121.05163 
L 179.94245 115.82934 
L 180.550478 88.740818 
L 180.854492 96.557407 
L 181.158506 65.830128 
L 181.766533 74.421637 
L 182.070547 69.367808 
L 182.374561 78.565776 
L 182.678575 77.993009 
L 182.982589 74.489021 
L 183.286603 76.3084 
L 183.590617 76.173631 
L 183.894631 84.091296 
L 184.198645 83.889143 
L 184.502659 97.601865 
L 184.806672 98.949552 
L 185.110686 87.089901 
L 185.4147 98.713707 
L 185.718714 92.379575 
L 186.022728 100.128779 
L 186.326742 97.635557 
L 186.630756 86.112827 
L 186.93477 94.165261 
L 187.238784 89.044048 
L 187.542798 87.190978 
L 188.150825 91.638347 
L 188.454839 90.425428 
L 188.758853 94.738028 
L 189.062867 102.992615 
L 189.366881 92.278498 
L 189.670895 90.189583 
L 189.974909 97.804018 
L 190.278923 98.410477 
L 190.582937 97.568172 
L 190.88695 100.802623 
L 191.190964 107.473677 
L 191.494978 99.52232 
L 191.798992 85.102062 
L 192.103006 91.099272 
L 192.40702 82.440379 
L 192.711034 87.022517 
L 193.015048 79.273313 
L 193.319062 76.712706 
L 193.623076 83.282683 
L 193.927089 71.490416 
L 194.231103 76.914859 
L 194.535117 79.172236 
L 194.839131 96.1531 
L 195.143145 76.409476 
L 195.447159 77.824548 
L 195.751173 90.088506 
L 196.055187 92.884958 
L 196.663215 110.607051 
L 196.967228 108.080136 
L 197.271242 120.040864 
L 197.575256 102.689386 
L 197.87927 106.59768 
L 198.487298 83.653297 
L 198.791312 100.60047 
L 199.095326 109.697361 
L 199.39934 108.214905 
L 199.703354 104.811994 
L 200.007368 117.042259 
L 200.311381 110.337513 
L 200.615395 89.279893 
L 200.919409 113.67304 
L 201.223423 104.508764 
L 201.527437 107.473677 
L 201.831451 93.727263 
L 202.439479 130.957134 
L 202.743493 121.82655 
L 203.047507 88.235435 
L 203.35152 100.667854 
L 203.655534 97.53448 
L 203.959548 89.178817 
L 204.567576 100.162471 
L 204.87159 93.828339 
L 205.175604 105.283684 
L 205.479618 105.789067 
L 205.783632 111.921046 
L 206.087646 120.613631 
L 206.391659 110.876588 
L 206.695673 97.130174 
L 207.607715 117.244412 
L 207.911729 109.83213 
L 208.215743 130.822366 
L 208.823771 109.596285 
L 209.431798 130.384367 
L 209.735812 131.19298 
L 210.039826 121.388552 
L 210.34384 115.728264 
L 210.647854 135.943579 
L 210.951868 118.423639 
L 211.255882 112.022123 
L 211.559896 120.579939 
L 211.86391 132.574359 
L 212.167924 122.635163 
L 212.471937 107.271524 
L 212.775951 110.169052 
L 213.079965 121.287475 
L 213.383979 122.399318 
L 213.687993 101.476467 
L 214.296021 92.952342 
L 214.600035 99.690781 
L 214.904049 80.92423 
L 215.208063 90.391736 
L 215.512076 91.53727 
L 215.81609 96.860636 
L 216.120104 104.946762 
L 216.424118 116.13257 
L 216.728132 110.13536 
L 217.33616 89.38097 
L 217.640174 96.119408 
L 217.944188 105.586914 
L 218.248202 103.733844 
L 218.552215 115.728264 
L 219.160243 113.504579 
L 219.464257 106.227066 
L 219.768271 115.896725 
L 220.072285 117.042259 
L 220.680313 124.959924 
L 220.984327 114.077346 
L 221.288341 117.850872 
L 221.592354 128.194375 
L 221.896368 133.248203 
L 222.200382 134.798044 
L 222.504396 144.400319 
L 222.80841 140.593101 
L 223.112424 118.5921 
L 223.416438 104.811994 
L 223.720452 104.542456 
L 224.024466 109.293055 
L 224.32848 119.198559 
L 224.632493 119.805019 
L 224.936507 115.458726 
L 225.240521 95.546641 
L 225.544535 97.264943 
L 225.848549 102.824154 
L 226.152563 106.193374 
L 226.456577 104.13815 
L 226.760591 110.607051 
L 227.064605 124.151312 
L 227.672632 126.341304 
L 228.28066 118.625792 
L 228.584674 115.222881 
L 228.888688 116.166262 
L 229.192702 124.791463 
L 229.80073 104.239226 
L 230.408758 124.724079 
L 230.712772 116.806414 
L 231.016785 118.794253 
L 231.320799 126.880379 
L 231.624813 127.857453 
L 231.928827 109.05721 
L 232.232841 111.247202 
L 232.536855 116.334723 
L 232.840869 123.713313 
L 233.144883 105.014147 
L 233.448897 110.943973 
L 233.752911 110.43859 
L 234.056924 87.831129 
L 234.360938 119.939788 
L 234.664952 126.206535 
L 235.27298 114.009962 
L 235.576994 116.873798 
L 235.881008 110.303821 
L 236.185022 131.058211 
L 236.489036 115.82934 
L 236.79305 110.371205 
L 237.097063 112.156891 
L 237.401077 96.1531 
L 237.705091 92.682805 
L 238.009105 90.526504 
L 238.313119 98.814784 
L 238.617133 77.015936 
L 239.529175 91.739423 
L 239.833189 88.269128 
L 240.137202 91.874192 
L 240.441216 97.905094 
L 240.74523 130.418059 
L 241.049244 125.263154 
L 241.353258 155.923048 
L 241.657272 135.943579 
L 241.961286 126.812995 
L 242.2653 138.706338 
L 242.569314 108.585519 
L 242.873328 104.373995 
L 243.177341 107.844291 
L 243.481355 115.35765 
L 244.393397 100.701546 
L 244.697411 110.101668 
L 245.001425 105.822759 
L 245.305439 105.99122 
L 245.609453 107.877983 
L 245.913467 102.824154 
L 246.21748 127.453146 
L 246.825508 117.81718 
L 247.129522 114.616421 
L 247.433536 95.108643 
L 247.73755 101.442775 
L 248.041564 125.633768 
L 248.345578 134.899121 
L 248.649592 124.825155 
L 248.953606 127.318378 
L 249.561633 118.861638 
L 249.865647 122.062396 
L 250.169661 130.957134 
L 250.473675 134.932813 
L 250.777689 124.993616 
L 251.385717 97.770326 
L 251.993745 128.12699 
L 252.297758 127.04884 
L 252.601772 125.296846 
L 252.905786 122.197164 
L 253.2098 141.570175 
L 253.513814 137.358651 
L 253.817828 126.27392 
L 254.121842 129.744215 
L 254.425856 116.90749 
L 255.337897 147.398924 
L 255.641911 148.477074 
L 255.945925 148.948765 
L 256.249939 163.773329 
L 256.553953 170.309614 
L 256.857967 158.348886 
L 257.161981 160.572571 
L 257.465995 164.784095 
L 258.378036 134.023124 
L 258.68205 132.574359 
L 258.986064 122.466702 
L 259.290078 128.699757 
L 259.594092 132.170053 
L 259.898106 126.509765 
L 260.506134 149.925838 
L 260.810148 150.801835 
L 261.114162 156.765353 
L 261.418175 141.064792 
L 261.722189 135.471888 
L 262.026203 126.038074 
L 262.330217 130.28329 
L 262.634231 125.431615 
L 263.242259 135.101274 
L 263.546273 137.055421 
L 263.850287 154.002593 
L 264.458315 102.689386 
L 264.762328 108.686596 
L 265.066342 104.677225 
L 265.370356 123.645929 
L 265.67437 134.494814 
L 265.978384 135.80881 
L 266.282398 143.760167 
L 266.586412 148.039075 
L 266.890426 137.257574 
L 267.19444 117.379181 
L 267.498454 132.237438 
L 267.802467 155.350281 
L 268.106481 139.582335 
L 268.410495 140.492024 
L 268.714509 125.263154 
L 269.018523 116.806414 
L 269.322537 114.75119 
L 269.626551 137.527112 
L 269.930565 124.89254 
L 270.234579 118.794253 
L 270.538593 99.926626 
L 270.842606 101.948157 
L 271.14662 101.476467 
L 271.450634 98.444169 
L 271.754648 92.61542 
L 272.058662 96.591099 
L 272.66669 119.906095 
L 272.970704 123.443776 
L 273.274718 115.391342 
L 273.578732 117.075951 
L 273.882745 105.283684 
L 274.186759 113.740424 
L 274.490773 118.120409 
L 274.794787 117.446565 
L 275.098801 107.507369 
L 275.402815 103.464306 
L 275.706829 106.799833 
L 276.618871 87.628976 
L 277.226898 120.344094 
L 277.530912 111.752585 
L 277.834926 114.212115 
L 278.13894 114.009962 
L 278.746968 101.476467 
L 279.050982 101.105853 
L 279.354996 120.141941 
L 279.65901 114.852267 
L 279.963023 122.399318 
L 280.267037 121.624397 
L 280.875065 139.245413 
L 281.179079 151.610448 
L 281.483093 146.253389 
L 281.787107 148.072768 
L 282.091121 172.533299 
L 282.395135 175.868826 
L 282.699149 175.599288 
L 283.003162 157.877195 
L 283.307176 180.349887 
L 283.61119 169.534694 
L 283.915204 178.058818 
L 284.523232 157.94458 
L 284.827246 166.435012 
L 285.13126 155.855664 
L 285.435274 153.193981 
L 285.739288 155.316589 
L 286.043301 148.645535 
L 286.347315 129.373601 
L 286.651329 129.643139 
L 286.955343 126.577149 
L 287.259357 140.42464 
L 287.563371 127.82376 
L 287.867385 126.74561 
L 288.171399 132.506975 
L 288.475413 143.322169 
L 288.779427 173.274527 
L 289.387454 129.676831 
L 289.691468 132.439591 
L 289.995482 120.849477 
L 290.60351 139.514951 
L 290.907524 142.816786 
L 291.515552 173.106066 
L 291.819566 171.219303 
L 292.123579 181.394345 
L 292.731607 164.750402 
L 293.035621 159.831342 
L 293.339635 160.808416 
L 293.643649 145.613238 
L 293.947663 160.909493 
L 294.251677 163.301638 
L 294.555691 147.668461 
L 294.859705 153.598287 
L 295.163719 151.981062 
L 295.467732 146.084928 
L 295.771746 143.456937 
L 296.07576 146.624003 
L 296.379774 157.506581 
L 296.683788 151.812601 
L 297.291816 157.843503 
L 297.59583 168.793465 
L 297.899844 193.557226 
L 298.203858 176.946976 
L 298.507871 174.992829 
L 298.811885 181.192192 
L 299.115899 172.0953 
L 299.419913 175.363443 
L 300.331955 161.751797 
L 300.635969 175.093905 
L 300.939983 177.587127 
L 301.243997 178.597893 
L 301.54801 182.843109 
L 301.852024 180.24881 
L 302.156038 173.240835 
L 302.460052 174.85806 
L 302.764066 175.734057 
L 303.06808 170.545459 
L 303.372094 139.110645 
L 303.676108 138.807415 
L 303.980122 147.533692 
L 304.284136 148.207536 
L 304.588149 145.310008 
L 304.892163 155.923048 
L 305.196177 156.529508 
L 305.500191 158.079348 
L 305.804205 161.920258 
L 306.108219 154.002593 
L 306.412233 159.595497 
L 306.716247 162.964716 
L 307.020261 180.754193 
L 307.628288 188.53709 
L 307.932302 210.032708 
L 308.236316 197.027522 
L 308.54033 191.097696 
L 308.844344 189.00878 
L 309.148358 178.39574 
L 309.452372 186.616635 
L 309.756386 183.719106 
L 310.0604 184.932025 
L 310.364414 173.004989 
L 310.668427 173.678833 
L 310.972441 177.048052 
L 311.276455 174.285293 
L 311.884483 159.090114 
L 312.796525 127.35207 
L 313.100539 135.80881 
L 313.404553 136.078347 
L 313.708566 130.182214 
L 314.316594 158.584731 
L 314.924622 191.299849 
L 315.228636 180.417271 
L 315.53265 183.988644 
L 315.836664 184.898333 
L 316.140678 172.027916 
L 316.748705 164.379788 
L 317.356733 144.299242 
L 317.660747 142.985247 
L 317.964761 135.674041 
L 318.268775 134.562199 
L 318.572789 130.957134 
L 319.180817 157.439197 
L 319.484831 134.562199 
L 320.396872 173.207142 
L 320.700886 170.747612 
L 321.0049 171.151919 
L 321.308914 168.456543 
L 321.612928 157.910887 
L 321.916942 155.754587 
L 322.220956 151.105065 
L 322.52497 138.740031 
L 322.828983 143.996012 
L 323.132997 155.619818 
L 323.437011 159.763958 
L 323.741025 157.607658 
L 324.045039 159.932419 
L 324.349053 156.933814 
L 324.653067 163.099485 
L 324.957081 157.068583 
L 325.261095 155.080743 
L 325.565109 161.044261 
L 325.869123 155.249204 
L 326.173136 146.792464 
L 326.47715 146.388158 
L 327.085178 137.459727 
L 327.389192 155.215512 
L 327.693206 155.653511 
L 328.301234 163.739637 
L 328.605248 160.40411 
L 328.909262 152.385368 
L 329.213275 168.523928 
L 329.517289 150.902912 
L 329.821303 156.394739 
L 330.125317 149.791069 
L 330.429331 153.834132 
L 331.037359 147.095694 
L 331.341373 152.014754 
L 331.645387 150.936604 
L 331.949401 166.637165 
L 332.253414 162.594102 
L 332.557428 154.87859 
L 332.861442 152.216907 
L 333.165456 146.388158 
L 333.46947 144.703548 
L 333.773484 147.432616 
L 334.077498 162.796255 
L 334.381512 84.562987 
L 334.98954 84.562987 
L 335.293553 178.665277 
L 335.597567 179.238045 
L 335.901581 196.218909 
L 336.205595 200.127203 
L 336.509609 217.647143 
L 336.813623 224.890964 
L 337.117637 228.698182 
L 337.725665 201.575968 
L 338.029679 205.686415 
L 338.333692 218.994831 
L 338.637706 201.710736 
L 338.94172 199.487052 
L 339.245734 207.135179 
L 339.549748 204.945187 
L 339.853762 210.133784 
L 340.157776 194.904914 
L 340.46179 199.015361 
L 341.069818 210.36963 
L 341.677845 208.718712 
L 341.981859 201.710736 
L 342.285873 199.958742 
L 342.589887 184.494027 
L 342.893901 194.298454 
L 343.197915 191.131388 
L 343.501929 191.535695 
L 343.805943 174.824368 
L 344.109957 174.487446 
L 344.717984 145.478469 
L 345.021998 145.377392 
L 345.326012 131.900516 
L 345.630026 127.284685 
L 345.93404 118.693177 
L 346.238054 120.546247 
L 346.542068 128.463912 
L 347.150096 150.633374 
L 347.454109 148.072768 
L 347.758123 155.95674 
L 348.062137 153.901517 
L 348.366151 166.738242 
L 348.670165 172.600683 
L 348.974179 173.645141 
L 349.278193 173.847294 
L 349.582207 174.2516 
L 349.886221 171.084534 
L 350.190235 163.33533 
L 350.494248 144.029705 
L 351.102276 156.529508 
L 351.40629 149.757377 
L 351.710304 157.472889 
L 352.014318 161.95395 
L 352.318332 158.079348 
L 352.622346 165.727476 
L 352.92636 152.385368 
L 353.230374 130.58652 
L 353.534387 125.296846 
L 353.838401 109.966899 
L 354.142415 111.011357 
L 354.446429 117.278105 
L 354.750443 112.729659 
L 355.054457 115.391342 
L 355.358471 97.972479 
L 355.662485 105.51953 
L 355.966499 99.421243 
L 356.270513 86.786671 
L 356.87854 102.689386 
L 357.182554 99.657088 
L 357.486568 101.914465 
L 357.790582 108.383366 
L 358.094596 121.893935 
L 358.39861 122.837316 
L 358.702624 115.863032 
L 359.006638 116.166262 
L 359.310652 104.104458 
L 359.614666 104.037073 
L 359.918679 105.014147 
L 360.222693 117.412873 
L 360.526707 106.395527 
L 361.134735 102.015542 
L 361.438749 117.109644 
L 361.742763 125.936998 
L 362.046777 131.327748 
L 362.654805 148.072768 
L 362.958818 151.003988 
L 363.262832 155.114436 
L 363.566846 154.743821 
L 363.87086 145.242623 
L 364.478888 136.482654 
L 364.782902 144.636164 
L 365.086916 143.96232 
L 365.39093 133.922047 
L 365.694944 138.537877 
L 365.998957 137.324958 
L 366.302971 124.151312 
L 366.606985 116.941183 
L 366.910999 122.73624 
L 367.215013 119.771327 
L 367.519027 132.74282 
L 367.823041 136.347885 
L 368.127055 137.796649 
L 368.431069 121.186399 
L 368.735083 137.527112 
L 369.039096 110.337513 
L 369.34311 110.303821 
L 369.647124 123.073161 
L 369.951138 126.240227 
L 370.255152 118.457331 
L 370.559166 138.975876 
L 370.86318 115.35765 
L 371.167194 130.88975 
L 371.471208 122.567779 
L 371.775222 122.43301 
L 372.079235 133.618817 
L 372.687263 139.919257 
L 372.991277 148.005383 
L 373.295291 147.095694 
L 373.599305 151.94737 
L 373.903319 154.069978 
L 374.207333 164.885171 
L 374.511347 156.192586 
L 374.815361 157.001198 
L 375.119374 145.006778 
L 375.423388 139.279106 
L 375.727402 127.250993 
L 376.031416 120.714708 
L 376.33543 125.19577 
L 376.639444 119.97348 
L 376.943458 117.412873 
L 377.247472 125.903306 
L 377.551486 142.210326 
L 377.8555 142.917862 
L 378.159513 150.127991 
L 378.463527 149.892146 
L 378.767541 138.26834 
L 379.071555 140.323564 
L 379.375569 128.497604 
L 379.679583 127.250993 
L 379.983597 145.983852 
L 380.287611 141.334329 
L 380.591625 129.036679 
L 380.895639 135.269735 
L 381.199652 124.185004 
L 381.503666 125.903306 
L 381.80768 108.787672 
L 382.111694 108.888749 
L 382.415708 126.105459 
L 383.023736 120.478863 
L 383.32775 108.248597 
L 383.631764 111.819969 
L 383.935778 123.039469 
L 384.239791 114.077346 
L 384.847819 135.269735 
L 385.455847 130.822366 
L 386.063875 149.18461 
L 386.367889 142.648325 
L 386.671903 145.849083 
L 386.975917 131.529902 
L 387.583944 142.311403 
L 387.887958 144.26555 
L 388.495986 126.74561 
L 388.495986 126.74561 
" clip-path="url(#pc0bac7faa4)" style="fill: none; stroke: #8b4513; stroke-width: 1.5; stroke-linecap: square"/>
   </g>
   <g id="patch_7">
    <path d="M 38.88 239.04 
L 38.88 11.52 
" style="fill: none; stroke: #000000; stroke-width: 0.8; stroke-linejoin: miter; stroke-linecap: square"/>
   </g>
   <g id="patch_8">
    <path d="M 388.8 239.04 
L 388.8 11.52 
" style="fill: none; stroke: #000000; stroke-width: 0.8; stroke-linejoin: miter; stroke-linecap: square"/>
   </g>
   <g id="patch_9">
    <path d="M 38.88 239.04 
L 388.8 239.04 
" style="fill: none; stroke: #000000; stroke-width: 0.8; stroke-linejoin: miter; stroke-linecap: square"/>
   </g>
   <g id="patch_10">
    <path d="M 38.88 11.52 
L 388.8 11.52 
" style="fill: none; stroke: #000000; stroke-width: 0.8; stroke-linejoin: miter; stroke-linecap: square"/>
   </g>
   <g id="legend_1">
    <g id="patch_11">
     <path d="M 319.8 50.479375 
L 381.8 50.479375 
Q 383.8 50.479375 383.8 48.479375 
L 383.8 18.52 
Q 383.8 16.52 381.8 16.52 
L 319.8 16.52 
Q 317.8 16.52 317.8 18.52 
L 317.8 48.479375 
Q 317.8 50.479375 319.8 50.479375 
z
" style="fill: #ffffff; opacity: 0.8; stroke: #cccccc; stroke-linejoin: miter"/>
    </g>
    <g id="line2d_27">
     <path d="M 321.8 25.01375 
L 331.8 25.01375 
L 341.8 25.01375 
" style="fill: none; stroke: #ff4500; stroke-width: 1.5; stroke-linecap: square"/>
    </g>
    <g id="text_28">
     <!-- 周跳 -->
     <g transform="translate(349.8 28.51375) scale(0.1 -0.1)">
      <use xlink:href="#MicrosoftYaHei-5468"/>
      <use xlink:href="#MicrosoftYaHei-8df3" x="100"/>
     </g>
    </g>
    <g id="line2d_28">
     <path d="M 321.8 40.493437 
L 331.8 40.493437 
L 341.8 40.493437 
" style="fill: none; stroke: #8b4513; stroke-width: 1.5; stroke-linecap: square"/>
    </g>
    <g id="text_29">
     <!-- 多路径 -->
     <g transform="translate(349.8 43.993437) scale(0.1 -0.1)">
      <use xlink:href="#MicrosoftYaHei-591a"/>
      <use xlink:href="#MicrosoftYaHei-8def" x="100"/>
      <use xlink:href="#MicrosoftYaHei-5f84" x="200"/>
     </g>
    </g>
   </g>
  </g>
 </g>
 <defs>
  <clipPath id="pc0bac7faa4">
   <rect x="38.88" y="11.52" width="349.92" height="227.52"/>
  </clipPath>
 </defs>
</svg>
