<?xml version="1.0" encoding="utf-8" standalone="no"?>
<!DOCTYPE svg PUBLIC "-//W3C//DTD SVG 1.1//EN"
  "http://www.w3.org/Graphics/SVG/1.1/DTD/svg11.dtd">
<svg xmlns:xlink="http://www.w3.org/1999/xlink" width="432pt" height="288pt" viewBox="0 0 432 288" xmlns="http://www.w3.org/2000/svg" version="1.1">
 <metadata>
  <rdf:RDF xmlns:dc="http://purl.org/dc/elements/1.1/" xmlns:cc="http://creativecommons.org/ns#" xmlns:rdf="http://www.w3.org/1999/02/22-rdf-syntax-ns#">
   <cc:Work>
    <dc:type rdf:resource="http://purl.org/dc/dcmitype/StillImage"/>
    <dc:date>2024-05-22T10:19:54.694999</dc:date>
    <dc:format>image/svg+xml</dc:format>
    <dc:creator>
     <cc:Agent>
      <dc:title>Matplotlib v3.8.4, https://matplotlib.org/</dc:title>
     </cc:Agent>
    </dc:creator>
   </cc:Work>
  </rdf:RDF>
 </metadata>
 <defs>
  <style type="text/css">*{stroke-linejoin: round; stroke-linecap: butt}</style>
 </defs>
 <g id="figure_1">
  <g id="patch_1">
   <path d="M 0 288 
L 432 288 
L 432 0 
L 0 0 
z
" style="fill: #ffffff"/>
  </g>
  <g id="axes_1">
   <g id="patch_2">
    <path d="M 38.88 239.04 
L 388.8 239.04 
L 388.8 11.52 
L 38.88 11.52 
z
" style="fill: #ffffff"/>
   </g>
   <g id="matplotlib.axis_1">
    <g id="xtick_1">
     <g id="line2d_1">
      <defs>
       <path id="m7fe0520e31" d="M 0 0 
L 0 3.5 
" style="stroke: #000000; stroke-width: 0.8"/>
      </defs>
      <g>
       <use xlink:href="#m7fe0520e31" x="38.88" y="239.04" style="stroke: #000000; stroke-width: 0.8"/>
      </g>
     </g>
     <g id="text_1">
      <!-- 0 -->
      <g transform="translate(36.241172 253.234375) scale(0.09 -0.09)">
       <defs>
        <path id="MicrosoftYaHei-30" d="M 284 2325 
Q 284 3606 709 4264 
Q 1134 4922 1941 4922 
Q 3478 4922 3478 2441 
Q 3478 1216 3045 567 
Q 2613 -81 1831 -81 
Q 1094 -81 689 534 
Q 284 1150 284 2325 
z
M 909 2353 
Q 909 425 1888 425 
Q 2850 425 2850 2384 
Q 2850 4413 1906 4413 
Q 909 4413 909 2353 
z
" transform="scale(0.015625)"/>
       </defs>
       <use xlink:href="#MicrosoftYaHei-30"/>
      </g>
     </g>
    </g>
    <g id="xtick_2">
     <g id="line2d_2">
      <g>
       <use xlink:href="#m7fe0520e31" x="38.88" y="239.04" style="stroke: #000000; stroke-width: 0.8"/>
      </g>
     </g>
     <g id="text_2">
      <!-- 0 -->
      <g transform="translate(36.241172 253.234375) scale(0.09 -0.09)">
       <use xlink:href="#MicrosoftYaHei-30"/>
      </g>
     </g>
    </g>
    <g id="xtick_3">
     <g id="line2d_3">
      <g>
       <use xlink:href="#m7fe0520e31" x="126.13199" y="239.04" style="stroke: #000000; stroke-width: 0.8"/>
      </g>
     </g>
     <g id="text_3">
      <!-- 8610 -->
      <g transform="translate(115.576677 253.234375) scale(0.09 -0.09)">
       <defs>
        <path id="MicrosoftYaHei-38" d="M 306 1350 
Q 306 1769 556 2122 
Q 806 2475 1200 2625 
Q 884 2803 700 3081 
Q 516 3359 516 3684 
Q 516 4028 692 4312 
Q 869 4597 1183 4759 
Q 1497 4922 1875 4922 
Q 2256 4922 2572 4761 
Q 2888 4600 3063 4315 
Q 3238 4031 3238 3684 
Q 3238 3366 3058 3086 
Q 2878 2806 2559 2625 
Q 2953 2472 3200 2119 
Q 3447 1766 3447 1350 
Q 3447 938 3250 611 
Q 3053 284 2690 103 
Q 2328 -78 1875 -78 
Q 1425 -78 1065 103 
Q 706 284 506 612 
Q 306 941 306 1350 
z
M 906 1378 
Q 906 947 1172 687 
Q 1438 428 1878 428 
Q 2309 428 2582 692 
Q 2856 956 2856 1378 
Q 2856 1778 2579 2051 
Q 2303 2325 1878 2325 
Q 1456 2325 1181 2058 
Q 906 1791 906 1378 
z
M 1081 3634 
Q 1081 3309 1312 3076 
Q 1544 2844 1878 2844 
Q 2206 2844 2445 3078 
Q 2684 3313 2684 3634 
Q 2684 3963 2454 4191 
Q 2225 4419 1878 4419 
Q 1534 4419 1307 4195 
Q 1081 3972 1081 3634 
z
" transform="scale(0.015625)"/>
        <path id="MicrosoftYaHei-36" d="M 3181 4219 
Q 2803 4413 2391 4413 
Q 1763 4413 1381 3866 
Q 1000 3319 994 2372 
L 1009 2372 
Q 1353 3038 2106 3038 
Q 2734 3038 3109 2628 
Q 3484 2219 3484 1541 
Q 3484 831 3051 375 
Q 2619 -81 1947 -81 
Q 1209 -81 789 495 
Q 369 1072 369 2131 
Q 369 3413 920 4167 
Q 1472 4922 2372 4922 
Q 2888 4922 3181 4781 
L 3181 4219 
z
M 1031 1584 
Q 1031 1106 1286 765 
Q 1541 425 1963 425 
Q 2363 425 2613 719 
Q 2863 1013 2863 1475 
Q 2863 1975 2627 2253 
Q 2391 2531 1956 2531 
Q 1544 2531 1287 2250 
Q 1031 1969 1031 1584 
z
" transform="scale(0.015625)"/>
        <path id="MicrosoftYaHei-31" d="M 1781 0 
L 1781 4141 
Q 1638 3997 1295 3819 
Q 953 3641 663 3569 
L 663 4169 
Q 1047 4275 1484 4508 
Q 1922 4741 2156 4947 
L 2388 4947 
L 2388 0 
L 1781 0 
z
" transform="scale(0.015625)"/>
       </defs>
       <use xlink:href="#MicrosoftYaHei-38"/>
       <use xlink:href="#MicrosoftYaHei-36" x="58.642578"/>
       <use xlink:href="#MicrosoftYaHei-31" x="117.285156"/>
       <use xlink:href="#MicrosoftYaHei-30" x="175.927734"/>
      </g>
     </g>
    </g>
    <g id="xtick_4">
     <g id="line2d_4">
      <g>
       <use xlink:href="#m7fe0520e31" x="213.383979" y="239.04" style="stroke: #000000; stroke-width: 0.8"/>
      </g>
     </g>
     <g id="text_4">
      <!-- 17220 -->
      <g transform="translate(200.189839 253.234375) scale(0.09 -0.09)">
       <defs>
        <path id="MicrosoftYaHei-37" d="M 3422 4463 
Q 2659 3131 2223 1998 
Q 1788 866 1684 0 
L 1047 0 
Q 1163 853 1594 1947 
Q 2025 3041 2747 4300 
L 347 4300 
L 347 4841 
L 3422 4841 
L 3422 4463 
z
" transform="scale(0.015625)"/>
        <path id="MicrosoftYaHei-32" d="M 2666 3572 
Q 2666 3963 2419 4186 
Q 2172 4409 1747 4409 
Q 1447 4409 1140 4256 
Q 834 4103 569 3819 
L 569 4413 
Q 806 4659 1107 4790 
Q 1409 4922 1816 4922 
Q 2472 4922 2872 4570 
Q 3272 4219 3272 3619 
Q 3272 3084 3026 2693 
Q 2781 2303 2188 1894 
Q 1581 1475 1376 1294 
Q 1172 1113 1090 947 
Q 1009 781 1009 544 
L 3416 544 
L 3416 0 
L 372 0 
L 372 241 
Q 372 659 486 951 
Q 600 1244 862 1520 
Q 1125 1797 1681 2184 
Q 2250 2584 2458 2886 
Q 2666 3188 2666 3572 
z
" transform="scale(0.015625)"/>
       </defs>
       <use xlink:href="#MicrosoftYaHei-31"/>
       <use xlink:href="#MicrosoftYaHei-37" x="58.642578"/>
       <use xlink:href="#MicrosoftYaHei-32" x="117.285156"/>
       <use xlink:href="#MicrosoftYaHei-32" x="175.927734"/>
       <use xlink:href="#MicrosoftYaHei-30" x="234.570312"/>
      </g>
     </g>
    </g>
    <g id="xtick_5">
     <g id="line2d_5">
      <g>
       <use xlink:href="#m7fe0520e31" x="300.635969" y="239.04" style="stroke: #000000; stroke-width: 0.8"/>
      </g>
     </g>
     <g id="text_5">
      <!-- 25830 -->
      <g transform="translate(287.441828 253.234375) scale(0.09 -0.09)">
       <defs>
        <path id="MicrosoftYaHei-35" d="M 3294 1494 
Q 3294 784 2823 350 
Q 2353 -84 1559 -84 
Q 878 -84 544 119 
L 544 744 
Q 1034 425 1544 425 
Q 2050 425 2361 704 
Q 2672 984 2672 1447 
Q 2672 1909 2348 2167 
Q 2025 2425 1434 2425 
Q 978 2425 613 2384 
L 791 4841 
L 3053 4841 
L 3053 4303 
L 1306 4303 
L 1206 2931 
L 1647 2950 
Q 2416 2950 2855 2567 
Q 3294 2184 3294 1494 
z
" transform="scale(0.015625)"/>
        <path id="MicrosoftYaHei-33" d="M 447 809 
Q 944 425 1569 425 
Q 2069 425 2361 670 
Q 2653 916 2653 1328 
Q 2653 2247 1338 2247 
L 934 2247 
L 934 2753 
L 1319 2753 
Q 2484 2753 2484 3616 
Q 2484 4413 1594 4413 
Q 1084 4413 634 4069 
L 634 4647 
Q 1109 4922 1744 4922 
Q 2363 4922 2738 4598 
Q 3113 4275 3113 3759 
Q 3113 2809 2144 2538 
L 2144 2525 
Q 2669 2469 2973 2155 
Q 3278 1841 3278 1372 
Q 3278 719 2808 319 
Q 2338 -81 1556 -81 
Q 869 -81 447 175 
L 447 809 
z
" transform="scale(0.015625)"/>
       </defs>
       <use xlink:href="#MicrosoftYaHei-32"/>
       <use xlink:href="#MicrosoftYaHei-35" x="58.642578"/>
       <use xlink:href="#MicrosoftYaHei-38" x="117.285156"/>
       <use xlink:href="#MicrosoftYaHei-33" x="175.927734"/>
       <use xlink:href="#MicrosoftYaHei-30" x="234.570312"/>
      </g>
     </g>
    </g>
    <g id="xtick_6">
     <g id="line2d_6">
      <g>
       <use xlink:href="#m7fe0520e31" x="388.8" y="239.04" style="stroke: #000000; stroke-width: 0.8"/>
      </g>
     </g>
     <g id="text_6">
      <!-- 34530 -->
      <g transform="translate(375.605859 253.234375) scale(0.09 -0.09)">
       <defs>
        <path id="MicrosoftYaHei-34" d="M 2906 4841 
L 2906 1644 
L 3631 1644 
L 3631 1138 
L 2906 1138 
L 2906 0 
L 2313 0 
L 2313 1138 
L 53 1138 
L 53 1616 
Q 656 2294 1265 3178 
Q 1875 4063 2272 4841 
L 2906 4841 
z
M 741 1644 
L 2313 1644 
L 2313 3950 
Q 1988 3366 1616 2817 
Q 1244 2269 741 1644 
z
" transform="scale(0.015625)"/>
       </defs>
       <use xlink:href="#MicrosoftYaHei-33"/>
       <use xlink:href="#MicrosoftYaHei-34" x="58.642578"/>
       <use xlink:href="#MicrosoftYaHei-35" x="117.285156"/>
       <use xlink:href="#MicrosoftYaHei-33" x="175.927734"/>
       <use xlink:href="#MicrosoftYaHei-30" x="234.570312"/>
      </g>
     </g>
    </g>
    <g id="text_7">
     <!-- 历元(秒) -->
     <g transform="translate(191.83125 268.764219) scale(0.12 -0.12)">
      <defs>
       <path id="MicrosoftYaHei-5386" d="M 1669 3084 
L 3028 3084 
Q 3044 3650 3044 4222 
L 3569 4222 
Q 3563 3650 3547 3084 
L 5800 3084 
Q 5725 1422 5656 341 
Q 5556 -616 4688 -634 
Q 4219 -634 3588 -603 
Q 3556 -366 3494 -41 
Q 4113 -109 4588 -109 
Q 5088 -103 5156 466 
Q 5225 1366 5269 2603 
L 3531 2603 
Q 3478 1334 3138 691 
Q 2681 -166 1513 -847 
Q 1338 -641 1144 -422 
Q 2294 284 2644 947 
Q 2969 1528 3013 2603 
L 1669 2603 
L 1669 3084 
z
M 1325 2766 
Q 1319 1384 1144 647 
Q 963 -116 456 -841 
Q 300 -628 81 -416 
Q 506 197 650 816 
Q 794 1416 794 2653 
L 794 4916 
L 6244 4916 
L 6244 4434 
L 1325 4434 
L 1325 2766 
z
" transform="scale(0.015625)"/>
       <path id="MicrosoftYaHei-5143" d="M 188 3084 
L 6225 3084 
L 6225 2609 
L 4250 2609 
L 4250 172 
Q 4250 -197 4625 -197 
L 5163 -197 
Q 5613 -197 5675 216 
Q 5731 566 5769 1103 
Q 6019 1016 6313 947 
Q 6250 409 6181 47 
Q 6056 -641 5275 -641 
L 4513 -641 
Q 3725 -641 3725 128 
L 3725 2609 
L 2450 2609 
L 2450 2409 
Q 2450 1084 2050 447 
Q 1650 -247 469 -847 
Q 244 -572 100 -428 
Q 1181 103 1556 691 
Q 1925 1253 1925 2384 
L 1925 2609 
L 188 2609 
L 188 3084 
z
M 788 4903 
L 5638 4903 
L 5638 4428 
L 788 4428 
L 788 4903 
z
" transform="scale(0.015625)"/>
       <path id="MicrosoftYaHei-28" d="M 1531 -1100 
Q 478 100 478 1847 
Q 478 3594 1531 4841 
L 2072 4841 
Q 1016 3544 1016 1853 
Q 1016 166 2066 -1100 
L 1531 -1100 
z
" transform="scale(0.015625)"/>
       <path id="MicrosoftYaHei-79d2" d="M 44 903 
Q 616 1744 978 3059 
L 113 3059 
L 113 3484 
L 1100 3484 
L 1100 4456 
Q 703 4400 281 4353 
Q 231 4566 150 4784 
Q 1244 4878 2344 5128 
L 2481 4691 
Q 2041 4603 1563 4525 
L 1563 3484 
L 2438 3484 
L 2438 3059 
L 1563 3059 
L 1563 2178 
L 1844 2422 
Q 2094 2166 2575 1603 
L 2200 1297 
Q 1809 1794 1563 2088 
L 1563 -822 
L 1100 -822 
L 1100 2175 
Q 766 1059 256 359 
Q 156 628 44 903 
z
M 1944 -316 
Q 4481 253 5594 2284 
L 6025 2003 
Q 4756 -141 2206 -766 
Q 2088 -534 1944 -316 
z
M 4025 5278 
L 4513 5278 
L 4513 1328 
L 4025 1328 
L 4025 5278 
z
M 3075 4266 
L 3544 4141 
Q 3275 3078 2906 1997 
Q 2681 2097 2425 2172 
Q 2850 3247 3075 4266 
z
M 4950 4141 
L 5375 4341 
Q 5856 3566 6281 2722 
L 5831 2484 
Q 5444 3328 4950 4141 
z
" transform="scale(0.015625)"/>
       <path id="MicrosoftYaHei-29" d="M 78 -1100 
Q 1131 163 1131 1853 
Q 1131 3547 72 4841 
L 616 4841 
Q 1672 3603 1672 1847 
Q 1672 91 616 -1100 
L 78 -1100 
z
" transform="scale(0.015625)"/>
      </defs>
      <use xlink:href="#MicrosoftYaHei-5386"/>
      <use xlink:href="#MicrosoftYaHei-5143" x="100"/>
      <use xlink:href="#MicrosoftYaHei-28" x="200"/>
      <use xlink:href="#MicrosoftYaHei-79d2" x="233.398438"/>
      <use xlink:href="#MicrosoftYaHei-29" x="333.398438"/>
     </g>
    </g>
   </g>
   <g id="matplotlib.axis_2">
    <g id="ytick_1">
     <g id="line2d_7">
      <defs>
       <path id="m02ca89afb7" d="M 0 0 
L -3.5 0 
" style="stroke: #000000; stroke-width: 0.8"/>
      </defs>
      <g>
       <use xlink:href="#m02ca89afb7" x="38.88" y="239.04" style="stroke: #000000; stroke-width: 0.8"/>
      </g>
     </g>
     <g id="text_8">
      <!-- 0 -->
      <g transform="translate(26.015937 243.036875) scale(0.1 -0.1)">
       <use xlink:href="#MicrosoftYaHei-30"/>
      </g>
     </g>
    </g>
    <g id="ytick_2">
     <g id="line2d_8">
      <g>
       <use xlink:href="#m02ca89afb7" x="38.88" y="215.090526" style="stroke: #000000; stroke-width: 0.8"/>
      </g>
     </g>
     <g id="text_9">
      <!-- 4 -->
      <g transform="translate(26.015937 219.087401) scale(0.1 -0.1)">
       <use xlink:href="#MicrosoftYaHei-34"/>
      </g>
     </g>
    </g>
    <g id="ytick_3">
     <g id="line2d_9">
      <g>
       <use xlink:href="#m02ca89afb7" x="38.88" y="191.141053" style="stroke: #000000; stroke-width: 0.8"/>
      </g>
     </g>
     <g id="text_10">
      <!-- 8 -->
      <g transform="translate(26.015937 195.137928) scale(0.1 -0.1)">
       <use xlink:href="#MicrosoftYaHei-38"/>
      </g>
     </g>
    </g>
    <g id="ytick_4">
     <g id="line2d_10">
      <g>
       <use xlink:href="#m02ca89afb7" x="38.88" y="167.191579" style="stroke: #000000; stroke-width: 0.8"/>
      </g>
     </g>
     <g id="text_11">
      <!-- 12 -->
      <g transform="translate(20.151875 171.188454) scale(0.1 -0.1)">
       <use xlink:href="#MicrosoftYaHei-31"/>
       <use xlink:href="#MicrosoftYaHei-32" x="58.642578"/>
      </g>
     </g>
    </g>
    <g id="ytick_5">
     <g id="line2d_11">
      <g>
       <use xlink:href="#m02ca89afb7" x="38.88" y="143.242105" style="stroke: #000000; stroke-width: 0.8"/>
      </g>
     </g>
     <g id="text_12">
      <!-- 16 -->
      <g transform="translate(20.151875 147.23898) scale(0.1 -0.1)">
       <use xlink:href="#MicrosoftYaHei-31"/>
       <use xlink:href="#MicrosoftYaHei-36" x="58.642578"/>
      </g>
     </g>
    </g>
    <g id="ytick_6">
     <g id="line2d_12">
      <g>
       <use xlink:href="#m02ca89afb7" x="38.88" y="119.292632" style="stroke: #000000; stroke-width: 0.8"/>
      </g>
     </g>
     <g id="text_13">
      <!-- 20 -->
      <g transform="translate(20.151875 123.289507) scale(0.1 -0.1)">
       <use xlink:href="#MicrosoftYaHei-32"/>
       <use xlink:href="#MicrosoftYaHei-30" x="58.642578"/>
      </g>
     </g>
    </g>
    <g id="ytick_7">
     <g id="line2d_13">
      <g>
       <use xlink:href="#m02ca89afb7" x="38.88" y="95.343158" style="stroke: #000000; stroke-width: 0.8"/>
      </g>
     </g>
     <g id="text_14">
      <!-- 24 -->
      <g transform="translate(20.151875 99.340033) scale(0.1 -0.1)">
       <use xlink:href="#MicrosoftYaHei-32"/>
       <use xlink:href="#MicrosoftYaHei-34" x="58.642578"/>
      </g>
     </g>
    </g>
    <g id="ytick_8">
     <g id="line2d_14">
      <g>
       <use xlink:href="#m02ca89afb7" x="38.88" y="71.393684" style="stroke: #000000; stroke-width: 0.8"/>
      </g>
     </g>
     <g id="text_15">
      <!-- 28 -->
      <g transform="translate(20.151875 75.390559) scale(0.1 -0.1)">
       <use xlink:href="#MicrosoftYaHei-32"/>
       <use xlink:href="#MicrosoftYaHei-38" x="58.642578"/>
      </g>
     </g>
    </g>
    <g id="ytick_9">
     <g id="line2d_15">
      <g>
       <use xlink:href="#m02ca89afb7" x="38.88" y="47.444211" style="stroke: #000000; stroke-width: 0.8"/>
      </g>
     </g>
     <g id="text_16">
      <!-- 32 -->
      <g transform="translate(20.151875 51.441086) scale(0.1 -0.1)">
       <use xlink:href="#MicrosoftYaHei-33"/>
       <use xlink:href="#MicrosoftYaHei-32" x="58.642578"/>
      </g>
     </g>
    </g>
    <g id="ytick_10">
     <g id="line2d_16">
      <g>
       <use xlink:href="#m02ca89afb7" x="38.88" y="23.494737" style="stroke: #000000; stroke-width: 0.8"/>
      </g>
     </g>
     <g id="text_17">
      <!-- 36 -->
      <g transform="translate(20.151875 27.491612) scale(0.1 -0.1)">
       <use xlink:href="#MicrosoftYaHei-33"/>
       <use xlink:href="#MicrosoftYaHei-36" x="58.642578"/>
      </g>
     </g>
    </g>
    <g id="text_18">
     <!-- 周跳数 -->
     <g transform="translate(18.665937 140.28) rotate(-90) scale(0.1 -0.1)">
      <defs>
       <path id="MicrosoftYaHei-5468" d="M 1175 2753 
Q 1175 1166 1038 572 
Q 888 -153 413 -822 
Q 231 -591 56 -403 
Q 450 197 575 803 
Q 675 1328 675 2634 
L 675 5059 
L 5981 5059 
L 5981 72 
Q 5981 -734 5206 -747 
Q 4763 -753 4219 -734 
Q 4194 -547 4119 -228 
Q 4725 -266 5050 -266 
Q 5494 -266 5494 153 
L 5494 4609 
L 1175 4609 
L 1175 2753 
z
M 1988 1897 
L 4663 1897 
L 4663 209 
L 2463 209 
L 2463 -191 
L 1988 -191 
L 1988 1897 
z
M 1475 2841 
L 3081 2841 
L 3081 3472 
L 1763 3472 
L 1763 3897 
L 3081 3897 
L 3081 4447 
L 3569 4447 
L 3569 3897 
L 4888 3897 
L 4888 3472 
L 3569 3472 
L 3569 2841 
L 5181 2841 
L 5181 2416 
L 1475 2416 
L 1475 2841 
z
M 4188 634 
L 4188 1472 
L 2463 1472 
L 2463 634 
L 4188 634 
z
" transform="scale(0.015625)"/>
       <path id="MicrosoftYaHei-8df3" d="M 63 109 
Q 231 131 406 153 
L 406 2453 
L 813 2453 
L 813 213 
Q 1050 247 1294 288 
L 1294 3097 
L 931 3097 
L 931 2891 
L 525 2891 
L 525 5009 
L 2256 5009 
L 2256 3097 
L 1713 3097 
L 1713 2159 
L 2406 2159 
L 2406 1766 
L 1713 1766 
L 1713 356 
Q 2056 416 2406 484 
Q 2406 234 2419 53 
Q 1269 -141 175 -359 
L 63 109 
z
M 4419 5303 
L 4881 5303 
L 4881 2353 
Q 5556 1966 6163 1566 
L 5844 1134 
Q 5384 1475 4881 1806 
L 4881 191 
Q 4869 -234 5200 -209 
L 5463 -209 
Q 5769 -216 5819 134 
Q 5863 416 5894 878 
Q 6100 778 6350 697 
Q 6313 334 6256 -3 
Q 6156 -666 5538 -653 
L 5113 -653 
Q 4388 -684 4419 141 
L 4419 5303 
z
M 3363 5284 
L 3819 5284 
L 3819 2553 
Q 3819 1509 3644 766 
Q 3375 -253 2431 -866 
Q 2294 -666 2106 -441 
Q 3238 228 3316 1663 
Q 2894 1281 2494 922 
L 2150 1316 
Q 2706 1722 3363 2288 
L 3363 5284 
z
M 1850 3459 
L 1850 4647 
L 931 4647 
L 931 3459 
L 1850 3459 
z
M 5663 4378 
L 6081 4159 
Q 5763 3503 5388 2897 
L 4988 3141 
Q 5369 3722 5663 4378 
z
M 2350 4172 
L 2763 4366 
Q 3081 3741 3313 3141 
L 2863 2922 
Q 2638 3584 2350 4172 
z
" transform="scale(0.015625)"/>
       <path id="MicrosoftYaHei-6570" d="M 4175 5303 
L 4675 5228 
Q 4544 4622 4369 4097 
L 6281 4097 
L 6281 3672 
L 5888 3672 
Q 5731 1834 5088 753 
Q 5594 66 6375 -372 
Q 6175 -647 6038 -866 
Q 5275 -372 4769 309 
Q 4194 -403 3400 -928 
Q 3263 -747 3044 -534 
Q 3919 41 4463 772 
Q 3956 1647 3794 2791 
Q 3663 2559 3519 2359 
Q 3394 2541 3206 2759 
Q 3931 3803 4175 5303 
z
M 150 1697 
L 1100 1697 
Q 1238 1934 1369 2184 
L 1819 2041 
Q 1719 1866 1619 1697 
L 3150 1697 
L 3150 1291 
Q 2913 678 2431 216 
Q 2775 53 3131 -109 
L 2856 -541 
Q 2469 -322 2050 -103 
Q 1344 -609 269 -903 
Q 169 -703 56 -466 
Q 969 -259 1600 128 
Q 1063 403 475 691 
Q 675 978 863 1284 
L 150 1284 
L 150 1697 
z
M 219 3847 
L 1656 3847 
L 1656 5247 
L 2119 5247 
L 2119 3847 
L 3319 3847 
L 3319 3434 
L 2119 3434 
L 2119 3053 
L 2306 3266 
Q 2888 2841 3281 2516 
L 2981 2166 
Q 2638 2491 2119 2897 
L 2119 2184 
L 1656 2184 
L 1656 3059 
Q 1088 2466 331 2016 
Q 213 2197 63 2397 
Q 850 2822 1506 3434 
L 219 3434 
L 219 3847 
z
M 5388 3672 
L 4219 3672 
Q 4188 3591 4150 3516 
Q 4263 2191 4775 1247 
Q 5275 2159 5388 3672 
z
M 1088 834 
Q 1531 634 2000 416 
Q 2431 784 2675 1284 
L 1375 1284 
Q 1231 1053 1088 834 
z
M 3038 5091 
L 3425 4834 
Q 3081 4384 2738 4003 
Q 2594 4128 2400 4266 
Q 2725 4647 3038 5091 
z
M 381 4816 
L 738 5059 
Q 1019 4716 1319 4322 
L 931 4047 
Q 656 4453 381 4816 
z
" transform="scale(0.015625)"/>
      </defs>
      <use xlink:href="#MicrosoftYaHei-5468"/>
      <use xlink:href="#MicrosoftYaHei-8df3" x="100"/>
      <use xlink:href="#MicrosoftYaHei-6570" x="200"/>
     </g>
    </g>
   </g>
   <g id="line2d_17">
    <path d="M 38.88 47.444211 
L 39.184014 239.04 
L 42.528167 239.04 
L 42.832181 233.052632 
L 44.048236 233.052632 
L 44.35225 239.04 
L 53.776681 239.04 
L 54.080695 233.052632 
L 54.384709 239.04 
L 71.713501 239.04 
L 72.017515 233.052632 
L 72.321529 239.04 
L 93.298488 239.04 
L 93.602502 233.052632 
L 93.906516 233.052632 
L 94.21053 239.04 
L 124.307906 239.04 
L 124.61192 233.052632 
L 124.915934 233.052632 
L 125.219948 239.04 
L 125.523962 233.052632 
L 125.827976 239.04 
L 132.212268 239.04 
L 132.516281 233.052632 
L 133.428323 233.052632 
L 133.732337 239.04 
L 144.372824 239.04 
L 144.676838 233.052632 
L 144.980851 233.052632 
L 145.284865 239.04 
L 148.02099 239.04 
L 148.325004 53.431579 
L 148.629018 239.04 
L 180.246464 239.04 
L 180.550478 233.052632 
L 181.158506 233.052632 
L 181.46252 239.04 
L 189.670895 239.04 
L 189.974909 233.052632 
L 190.278923 239.04 
L 199.095326 239.04 
L 199.39934 233.052632 
L 199.703354 239.04 
L 205.783632 239.04 
L 206.087646 233.052632 
L 206.391659 239.04 
L 206.695673 239.04 
L 206.999687 233.052632 
L 207.303701 233.052632 
L 207.607715 239.04 
L 218.248202 239.04 
L 218.552215 233.052632 
L 218.856229 239.04 
L 221.592354 239.04 
L 221.896368 233.052632 
L 222.200382 239.04 
L 224.32848 239.04 
L 224.632493 233.052632 
L 224.936507 239.04 
L 231.928827 239.04 
L 232.232841 233.052632 
L 232.536855 239.04 
L 242.2653 239.04 
L 242.569314 233.052632 
L 243.177341 233.052632 
L 243.481355 239.04 
L 251.689731 239.04 
L 251.993745 233.052632 
L 252.297758 239.04 
L 255.641911 239.04 
L 255.945925 233.052632 
L 256.249939 239.04 
L 257.465995 239.04 
L 257.770009 35.469474 
L 258.074023 233.052632 
L 258.378036 233.052632 
L 258.68205 239.04 
L 263.850287 239.04 
L 264.154301 233.052632 
L 264.458315 239.04 
L 277.530912 239.04 
L 277.834926 233.052632 
L 278.13894 239.04 
L 278.442954 239.04 
L 278.746968 233.052632 
L 279.050982 233.052632 
L 279.354996 239.04 
L 327.99722 239.04 
L 328.301234 233.052632 
L 328.605248 233.052632 
L 328.909262 239.04 
L 341.069818 239.04 
L 341.373831 233.052632 
L 341.981859 233.052632 
L 342.285873 239.04 
L 366.910999 239.04 
L 367.215013 17.507368 
L 367.519027 239.04 
L 385.759861 239.04 
L 386.063875 233.052632 
L 386.367889 239.04 
L 386.671903 239.04 
L 386.975917 227.065263 
L 387.27993 233.052632 
L 387.887958 233.052632 
L 388.191972 239.04 
L 388.495986 239.04 
L 388.495986 239.04 
" clip-path="url(#p101adaa04b)" style="fill: none; stroke: #ff4500; stroke-width: 1.5; stroke-linecap: square"/>
   </g>
   <g id="patch_3">
    <path d="M 38.88 239.04 
L 38.88 11.52 
" style="fill: none; stroke: #000000; stroke-width: 0.8; stroke-linejoin: miter; stroke-linecap: square"/>
   </g>
   <g id="patch_4">
    <path d="M 388.8 239.04 
L 388.8 11.52 
" style="fill: none; stroke: #000000; stroke-width: 0.8; stroke-linejoin: miter; stroke-linecap: square"/>
   </g>
   <g id="patch_5">
    <path d="M 38.88 239.04 
L 388.8 239.04 
" style="fill: none; stroke: #000000; stroke-width: 0.8; stroke-linejoin: miter; stroke-linecap: square"/>
   </g>
   <g id="patch_6">
    <path d="M 38.88 11.52 
L 388.8 11.52 
" style="fill: none; stroke: #000000; stroke-width: 0.8; stroke-linejoin: miter; stroke-linecap: square"/>
   </g>
  </g>
  <g id="axes_2">
   <g id="matplotlib.axis_3">
    <g id="ytick_11">
     <g id="line2d_18">
      <defs>
       <path id="mb1e5516f7c" d="M 0 0 
L 3.5 0 
" style="stroke: #000000; stroke-width: 0.8"/>
      </defs>
      <g>
       <use xlink:href="#mb1e5516f7c" x="388.8" y="215.715484" style="stroke: #000000; stroke-width: 0.8"/>
      </g>
     </g>
     <g id="text_19">
      <!-- -30 -->
      <g transform="translate(395.8 219.712359) scale(0.1 -0.1)">
       <defs>
        <path id="MicrosoftYaHei-2d" d="M 2328 1681 
L 488 1681 
L 488 2153 
L 2328 2153 
L 2328 1681 
z
" transform="scale(0.015625)"/>
       </defs>
       <use xlink:href="#MicrosoftYaHei-2d"/>
       <use xlink:href="#MicrosoftYaHei-33" x="43.261719"/>
       <use xlink:href="#MicrosoftYaHei-30" x="101.904297"/>
      </g>
     </g>
    </g>
    <g id="ytick_12">
     <g id="line2d_19">
      <g>
       <use xlink:href="#mb1e5516f7c" x="388.8" y="180.243633" style="stroke: #000000; stroke-width: 0.8"/>
      </g>
     </g>
     <g id="text_20">
      <!-- -20 -->
      <g transform="translate(395.8 184.240508) scale(0.1 -0.1)">
       <use xlink:href="#MicrosoftYaHei-2d"/>
       <use xlink:href="#MicrosoftYaHei-32" x="43.261719"/>
       <use xlink:href="#MicrosoftYaHei-30" x="101.904297"/>
      </g>
     </g>
    </g>
    <g id="ytick_13">
     <g id="line2d_20">
      <g>
       <use xlink:href="#mb1e5516f7c" x="388.8" y="144.771782" style="stroke: #000000; stroke-width: 0.8"/>
      </g>
     </g>
     <g id="text_21">
      <!-- -10 -->
      <g transform="translate(395.8 148.768657) scale(0.1 -0.1)">
       <use xlink:href="#MicrosoftYaHei-2d"/>
       <use xlink:href="#MicrosoftYaHei-31" x="43.261719"/>
       <use xlink:href="#MicrosoftYaHei-30" x="101.904297"/>
      </g>
     </g>
    </g>
    <g id="ytick_14">
     <g id="line2d_21">
      <g>
       <use xlink:href="#mb1e5516f7c" x="388.8" y="109.299931" style="stroke: #000000; stroke-width: 0.8"/>
      </g>
     </g>
     <g id="text_22">
      <!-- 0 -->
      <g transform="translate(395.8 113.296806) scale(0.1 -0.1)">
       <use xlink:href="#MicrosoftYaHei-30"/>
      </g>
     </g>
    </g>
    <g id="ytick_15">
     <g id="line2d_22">
      <g>
       <use xlink:href="#mb1e5516f7c" x="388.8" y="73.82808" style="stroke: #000000; stroke-width: 0.8"/>
      </g>
     </g>
     <g id="text_23">
      <!-- 10 -->
      <g transform="translate(395.8 77.824955) scale(0.1 -0.1)">
       <use xlink:href="#MicrosoftYaHei-31"/>
       <use xlink:href="#MicrosoftYaHei-30" x="58.642578"/>
      </g>
     </g>
    </g>
    <g id="ytick_16">
     <g id="line2d_23">
      <g>
       <use xlink:href="#mb1e5516f7c" x="388.8" y="38.356229" style="stroke: #000000; stroke-width: 0.8"/>
      </g>
     </g>
     <g id="text_24">
      <!-- 20 -->
      <g transform="translate(395.8 42.353104) scale(0.1 -0.1)">
       <use xlink:href="#MicrosoftYaHei-32"/>
       <use xlink:href="#MicrosoftYaHei-30" x="58.642578"/>
      </g>
     </g>
    </g>
    <g id="text_25">
     <!-- 平均多路径误差(cm) -->
     <g transform="translate(418.848437 170.812812) rotate(-90) scale(0.1 -0.1)">
      <defs>
       <path id="MicrosoftYaHei-5e73" d="M 169 1934 
L 2938 1934 
L 2938 4547 
L 450 4547 
L 450 5028 
L 5975 5028 
L 5975 4547 
L 3463 4547 
L 3463 1934 
L 6250 1934 
L 6250 1453 
L 3463 1453 
L 3463 -847 
L 2938 -847 
L 2938 1453 
L 169 1453 
L 169 1934 
z
M 3950 2559 
Q 4638 3284 5188 4159 
L 5656 3859 
Q 4950 2891 4338 2234 
L 3950 2559 
z
M 769 3859 
L 1163 4134 
Q 1863 3316 2369 2553 
L 1925 2222 
Q 1444 3003 769 3859 
z
" transform="scale(0.015625)"/>
       <path id="MicrosoftYaHei-5747" d="M 2244 2803 
Q 2931 3953 3338 5322 
L 3838 5172 
Q 3691 4744 3531 4347 
L 6013 4347 
Q 5925 1053 5875 297 
Q 5831 -697 4806 -697 
Q 4188 -697 3706 -672 
Q 3669 -422 3606 -141 
L 3625 -141 
Q 4250 -209 4775 -209 
Q 5350 -209 5394 378 
Q 5456 1447 5513 3891 
L 3341 3891 
Q 3028 3172 2675 2572 
Q 2481 2691 2244 2803 
z
M 81 428 
Q 559 600 1006 769 
L 1006 3253 
L 169 3253 
L 169 3697 
L 1006 3697 
L 1006 5259 
L 1469 5259 
L 1469 3697 
L 2281 3697 
L 2281 3253 
L 1469 3253 
L 1469 947 
Q 1922 1125 2338 1303 
Q 2350 991 2369 784 
Q 1363 403 250 -53 
L 81 428 
z
M 2513 853 
Q 3769 1353 5119 1934 
Q 5150 1641 5188 1434 
Q 4031 947 2706 359 
L 2513 853 
z
M 3138 2909 
L 3481 3216 
Q 4025 2716 4531 2216 
L 4125 1859 
Q 3644 2409 3138 2909 
z
" transform="scale(0.015625)"/>
       <path id="MicrosoftYaHei-591a" d="M 3719 2803 
L 4338 2803 
Q 4050 2522 3744 2272 
L 6019 2272 
L 6019 1816 
Q 4006 -366 650 -891 
Q 538 -666 369 -422 
Q 1894 -203 3100 322 
Q 2919 559 2581 903 
L 2956 1178 
Q 3275 847 3538 522 
Q 4588 1059 5344 1834 
L 3200 1834 
Q 2100 1009 881 484 
Q 769 666 581 909 
Q 2319 1609 3719 2803 
z
M 2775 5316 
L 3406 5316 
Q 3088 4972 2756 4672 
L 5700 4672 
L 5700 4247 
Q 3550 2516 481 1666 
Q 350 1916 194 2103 
Q 1481 2441 2506 2872 
Q 2281 3122 1913 3484 
L 2263 3759 
Q 2631 3403 2944 3066 
Q 4088 3584 4950 4234 
L 2256 4234 
Q 1606 3678 713 3172 
Q 575 3359 369 3566 
Q 1800 4328 2775 5316 
z
" transform="scale(0.015625)"/>
       <path id="MicrosoftYaHei-8def" d="M 481 2416 
L 894 2416 
L 894 106 
Q 1147 144 1413 184 
L 1413 3041 
L 913 3041 
L 913 2834 
L 463 2834 
L 463 4953 
L 2513 4953 
L 2513 3041 
L 1850 3041 
L 1850 1984 
L 2500 1984 
L 2500 1559 
L 1850 1559 
L 1850 250 
Q 2241 313 2650 384 
Q 2638 172 2638 -72 
Q 1419 -278 225 -484 
L 100 3 
Q 288 25 481 50 
L 481 2416 
z
M 2575 3428 
Q 3231 4234 3713 5359 
L 4175 5191 
Q 4041 4909 3906 4653 
L 5881 4653 
L 5881 4234 
Q 5472 3463 4797 2809 
Q 5413 2388 6313 2178 
Q 6188 1903 6106 1659 
Q 5125 1994 4441 2500 
Q 3759 1972 2788 1559 
Q 2725 1684 2538 2003 
Q 3384 2306 4072 2816 
Q 3694 3191 3391 3756 
Q 3138 3366 2888 3059 
Q 2738 3259 2575 3428 
z
M 3038 1584 
L 5756 1584 
L 5756 -847 
L 5288 -847 
L 5288 -547 
L 3506 -547 
L 3506 -847 
L 3038 -847 
L 3038 1584 
z
M 5288 1147 
L 3506 1147 
L 3506 -109 
L 5288 -109 
L 5288 1147 
z
M 2063 3466 
L 2063 4528 
L 913 4528 
L 913 3466 
L 2063 3466 
z
M 5344 4228 
L 3675 4228 
Q 3656 4197 3638 4166 
Q 3953 3531 4425 3103 
Q 4988 3606 5344 4228 
z
" transform="scale(0.015625)"/>
       <path id="MicrosoftYaHei-5f84" d="M 2388 4466 
L 2388 4891 
L 5738 4891 
L 5738 4459 
Q 5216 3866 4619 3391 
Q 5559 2888 6338 2428 
L 6038 1972 
Q 5256 2494 4216 3091 
Q 3253 2422 2106 2041 
Q 2000 2247 1850 2459 
Q 3894 3153 5025 4466 
L 2388 4466 
z
M 1931 -66 
L 3881 -66 
L 3881 1403 
L 2288 1403 
L 2288 1828 
L 5950 1828 
L 5950 1403 
L 4344 1403 
L 4344 -66 
L 6300 -66 
L 6300 -491 
L 1931 -491 
L 1931 -66 
z
M 38 1572 
Q 975 2353 1750 3809 
L 2175 3541 
Q 1844 2953 1475 2444 
L 1475 -816 
L 994 -816 
L 994 1831 
Q 638 1419 250 1066 
Q 156 1328 38 1572 
z
M 106 3616 
Q 1038 4359 1638 5391 
L 2063 5116 
Q 1356 3997 344 3134 
Q 238 3359 106 3616 
z
" transform="scale(0.015625)"/>
       <path id="MicrosoftYaHei-8bef" d="M 1819 1484 
L 3706 1484 
Q 3750 1769 3756 2222 
L 2044 2222 
L 2044 2659 
L 6069 2659 
L 6069 2222 
L 4244 2222 
Q 4234 1753 4203 1484 
L 6288 1484 
L 6288 1047 
L 4356 1047 
Q 4913 -53 6363 -359 
Q 6138 -628 5981 -828 
Q 4538 -406 3984 850 
Q 3569 -272 1969 -847 
Q 1819 -653 1631 -441 
Q 3188 53 3588 1047 
L 1819 1047 
L 1819 1484 
z
M 2325 5034 
L 5750 5034 
L 5750 2991 
L 5275 2991 
L 5275 3272 
L 2800 3272 
L 2800 2991 
L 2325 2991 
L 2325 5034 
z
M 2044 784 
Q 2063 459 2088 247 
Q 1294 -272 925 -584 
L 631 -166 
Q 844 9 844 378 
L 844 2716 
L 100 2716 
L 100 3166 
L 1325 3166 
L 1325 284 
Q 1763 578 2044 784 
z
M 5275 4616 
L 2800 4616 
L 2800 3691 
L 5275 3691 
L 5275 4616 
z
M 831 5153 
Q 1281 4697 1725 4184 
L 1294 3822 
Q 881 4347 450 4822 
L 831 5153 
z
" transform="scale(0.015625)"/>
       <path id="MicrosoftYaHei-5dee" d="M 1094 -172 
L 3419 -172 
L 3419 891 
L 1813 891 
L 1813 1088 
Q 1200 394 331 -197 
Q 206 3 31 247 
Q 1213 1028 1859 1984 
L 200 1984 
L 200 2409 
L 2119 2409 
Q 2275 2694 2409 3028 
L 638 3028 
L 638 3447 
L 2569 3447 
Q 2666 3728 2750 4041 
L 488 4041 
L 488 4466 
L 2075 4466 
Q 1813 4797 1513 5122 
L 1869 5397 
Q 2231 5047 2563 4672 
L 2278 4466 
L 4219 4466 
L 3975 4684 
Q 4344 5047 4631 5403 
L 5056 5122 
Q 4738 4772 4413 4466 
L 6050 4466 
L 6050 4041 
L 3291 4041 
Q 3206 3731 3109 3447 
L 5813 3447 
L 5813 3028 
L 2963 3028 
Q 2838 2700 2697 2409 
L 6294 2409 
L 6294 1984 
L 2469 1984 
Q 2259 1634 1997 1309 
L 5613 1309 
L 5613 891 
L 3925 891 
L 3925 -172 
L 6213 -172 
L 6213 -597 
L 1094 -597 
L 1094 -172 
z
" transform="scale(0.015625)"/>
       <path id="MicrosoftYaHei-63" d="M 2934 156 
Q 2538 -81 1978 -81 
Q 1228 -81 772 400 
Q 316 881 316 1647 
Q 316 2497 808 3017 
Q 1300 3538 2125 3538 
Q 2600 3538 2938 3369 
L 2938 2763 
Q 2572 3031 2125 3031 
Q 1600 3031 1270 2667 
Q 941 2303 941 1697 
Q 941 1100 1252 762 
Q 1563 425 2091 425 
Q 2538 425 2934 719 
L 2934 156 
z
" transform="scale(0.015625)"/>
       <path id="MicrosoftYaHei-6d" d="M 5522 0 
L 4909 0 
L 4909 1984 
Q 4909 2547 4734 2789 
Q 4559 3031 4159 3031 
Q 3822 3031 3581 2715 
Q 3341 2400 3341 1969 
L 3341 0 
L 2728 0 
L 2728 2047 
Q 2728 3031 1969 3031 
Q 1619 3031 1389 2731 
Q 1159 2431 1159 1966 
L 1159 0 
L 547 0 
L 547 3456 
L 1159 3456 
L 1159 2909 
L 1172 2909 
Q 1541 3538 2250 3538 
Q 2597 3538 2862 3347 
Q 3128 3156 3231 2831 
Q 3616 3538 4381 3538 
Q 5522 3538 5522 2131 
L 5522 0 
z
" transform="scale(0.015625)"/>
      </defs>
      <use xlink:href="#MicrosoftYaHei-5e73"/>
      <use xlink:href="#MicrosoftYaHei-5747" x="100"/>
      <use xlink:href="#MicrosoftYaHei-591a" x="200"/>
      <use xlink:href="#MicrosoftYaHei-8def" x="300"/>
      <use xlink:href="#MicrosoftYaHei-5f84" x="400"/>
      <use xlink:href="#MicrosoftYaHei-8bef" x="500"/>
      <use xlink:href="#MicrosoftYaHei-5dee" x="600"/>
      <use xlink:href="#MicrosoftYaHei-28" x="700"/>
      <use xlink:href="#MicrosoftYaHei-63" x="733.398438"/>
      <use xlink:href="#MicrosoftYaHei-6d" x="783.544922"/>
      <use xlink:href="#MicrosoftYaHei-29" x="877.246094"/>
     </g>
    </g>
   </g>
   <g id="line2d_24">
    <path d="M 38.88 98.410073 
L 39.184014 97.948939 
L 39.488028 98.764791 
L 39.792042 101.42518 
L 40.096056 106.142936 
L 40.40007 107.348979 
L 40.704083 106.887845 
L 41.008097 110.896164 
L 41.312111 111.463714 
L 41.616125 115.259202 
L 41.920139 117.529401 
L 42.224153 112.385982 
L 42.528167 114.798068 
L 42.832181 114.514293 
L 43.136195 113.556553 
L 43.440209 109.299931 
L 43.744222 112.847116 
L 44.35225 126.610194 
L 44.656264 122.459988 
L 44.960278 129.306055 
L 45.264292 126.71661 
L 45.568306 131.682669 
L 45.87232 130.228323 
L 46.176334 125.510567 
L 46.480348 131.044176 
L 46.784361 122.3181 
L 47.088375 118.380725 
L 47.392389 116.855435 
L 48.000417 99.332341 
L 48.304431 99.545172 
L 48.608445 95.891571 
L 48.912459 97.487805 
L 49.216473 96.601008 
L 49.8245 114.514293 
L 50.128514 120.225261 
L 50.736542 122.211685 
L 51.040556 121.92791 
L 51.34457 125.013961 
L 51.952598 115.79128 
L 52.864639 123.701503 
L 53.168653 114.407878 
L 53.472667 122.566403 
L 53.776681 121.998854 
L 54.080695 109.158044 
L 54.384709 101.283293 
L 54.688723 111.250883 
L 55.296751 100.396496 
L 55.600765 105.220668 
L 55.904778 112.173151 
L 56.208792 103.376132 
L 56.81682 118.629028 
L 57.424848 114.798068 
L 57.728862 114.053159 
L 58.032876 107.987473 
L 58.33689 104.191985 
L 58.944917 100.964046 
L 59.248931 105.114253 
L 59.552945 107.490867 
L 60.160973 120.863755 
L 60.464987 119.870543 
L 60.769001 121.36036 
L 61.073015 116.465245 
L 61.377029 107.881057 
L 61.681043 114.585237 
L 61.985056 104.86595 
L 62.28907 105.291612 
L 62.593084 102.702167 
L 62.897098 101.141405 
L 63.201112 101.283293 
L 63.505126 94.437225 
L 64.113154 88.797201 
L 64.721182 88.761729 
L 65.633223 99.758003 
L 65.937237 100.857631 
L 66.241251 97.026671 
L 66.545265 95.714212 
L 66.849279 96.494593 
L 67.153293 98.481017 
L 67.457307 99.154982 
L 67.761321 101.567068 
L 68.065334 105.25614 
L 68.369348 106.994261 
L 68.673362 107.703698 
L 68.977376 114.585237 
L 69.28139 118.274309 
L 69.585404 123.488672 
L 69.889418 114.585237 
L 70.193432 115.010899 
L 70.497446 111.995792 
L 70.80146 104.617647 
L 71.105474 104.901422 
L 71.409487 108.448607 
L 71.713501 85.391903 
L 72.017515 91.493062 
L 72.321529 90.216075 
L 73.233571 102.38292 
L 73.537585 108.235776 
L 73.841599 109.973896 
L 74.449626 101.105933 
L 74.75364 107.384451 
L 75.057654 110.683333 
L 75.361668 115.507505 
L 75.665682 105.681802 
L 75.969696 109.299931 
L 76.27371 106.001049 
L 76.577724 109.441818 
L 76.881738 105.717274 
L 77.185752 107.810113 
L 77.489765 107.881057 
L 77.793779 102.099145 
L 78.097793 105.468971 
L 78.401807 115.507505 
L 78.705821 109.441818 
L 79.921877 133.952868 
L 80.225891 136.967975 
L 80.529904 133.491734 
L 80.833918 128.135484 
L 81.137932 130.760401 
L 81.441946 131.008704 
L 81.74596 128.63209 
L 82.049974 122.921122 
L 82.353988 119.338465 
L 82.658002 121.502248 
L 82.962016 130.370211 
L 83.26603 130.54757 
L 83.570043 133.243431 
L 83.874057 145.232916 
L 84.178071 149.13482 
L 84.482085 155.803528 
L 84.786099 153.958992 
L 85.090113 147.432171 
L 85.394127 147.574058 
L 85.698141 146.403487 
L 86.610182 132.711353 
L 86.914196 132.604937 
L 87.21821 123.807918 
L 87.522224 121.856966 
L 87.826238 124.446411 
L 88.130252 128.348315 
L 88.434266 124.623771 
L 88.73828 135.33627 
L 89.042294 134.697776 
L 89.346308 137.783828 
L 89.954335 118.026006 
L 90.258349 118.806387 
L 90.562363 118.487141 
L 90.866377 119.976958 
L 91.170391 123.27584 
L 91.474405 130.795873 
L 91.778419 128.986808 
L 92.082433 134.059283 
L 92.69046 150.943884 
L 92.994474 155.519753 
L 93.298488 138.03213 
L 93.602502 145.835938 
L 93.906516 140.834407 
L 94.21053 157.18693 
L 94.514544 165.416399 
L 95.122572 159.208826 
L 95.426586 159.208826 
L 95.730599 159.350713 
L 96.034613 160.663171 
L 96.338627 160.592228 
L 96.642641 160.876003 
L 97.250669 147.077452 
L 97.554683 146.65179 
L 97.858697 145.161973 
L 98.162711 141.543844 
L 98.466725 142.04045 
L 98.770738 151.511434 
L 99.074752 151.0503 
L 99.378766 150.305391 
L 99.68278 149.170292 
L 99.986794 148.673686 
L 100.290808 146.403487 
L 100.594822 146.155184 
L 100.898836 148.602742 
L 101.20285 146.580847 
L 101.506864 148.425383 
L 101.810877 147.432171 
L 102.418905 131.008704 
L 102.722919 138.493265 
L 103.026933 140.12497 
L 103.330947 136.081179 
L 103.938975 148.141608 
L 104.242989 148.780101 
L 104.547003 153.320498 
L 104.851017 149.170292 
L 105.15503 142.111393 
L 105.459044 142.643471 
L 105.763058 142.856302 
L 106.067072 136.223066 
L 106.371086 134.946079 
L 106.979114 141.827619 
L 107.587142 154.029935 
L 107.891156 163.039785 
L 108.195169 166.516027 
L 108.499183 162.756011 
L 108.803197 166.374139 
L 109.411225 157.860895 
L 109.715239 158.925051 
L 110.019253 149.879729 
L 110.323267 147.361227 
L 110.627281 149.276707 
L 110.931295 149.950672 
L 111.235308 149.560482 
L 111.843336 146.368015 
L 112.451364 140.195913 
L 112.755378 134.981551 
L 113.059392 132.285691 
L 113.363406 136.187594 
L 113.66742 132.995128 
L 113.971434 139.309117 
L 114.275447 143.281964 
L 114.579461 143.459324 
L 114.883475 150.411806 
L 115.187489 154.562013 
L 115.491503 154.774844 
L 115.795517 153.249555 
L 116.099531 147.574058 
L 116.707559 160.272981 
L 117.011573 156.087303 
L 117.315586 157.151458 
L 117.6196 151.830681 
L 117.923614 154.632957 
L 118.227628 154.952203 
L 118.531642 153.92352 
L 118.835656 154.774844 
L 119.13967 153.604273 
L 119.443684 153.639745 
L 119.747698 154.278238 
L 120.051712 160.166566 
L 120.355725 160.06015 
L 120.659739 151.866152 
L 121.267767 150.411806 
L 121.571781 157.967311 
L 121.875795 161.904686 
L 122.483823 173.929644 
L 122.787837 173.681341 
L 123.091851 168.608866 
L 123.395864 171.588502 
L 123.699878 167.544711 
L 124.003892 166.054893 
L 124.61192 123.559615 
L 125.219948 109.228987 
L 125.523962 112.989004 
L 125.827976 110.896164 
L 126.13199 113.556553 
L 126.436003 113.30825 
L 126.740017 115.968639 
L 127.044031 120.473564 
L 127.348045 122.743763 
L 127.652059 119.764127 
L 127.956073 118.699972 
L 128.260087 118.806387 
L 128.564101 115.649392 
L 129.172129 124.730186 
L 129.476142 132.46305 
L 129.780156 126.574723 
L 130.08417 128.525674 
L 130.388184 137.64194 
L 130.692198 141.508372 
L 131.300226 144.204233 
L 131.60424 143.991401 
L 131.908254 144.523479 
L 132.212268 143.95593 
L 132.516281 122.566403 
L 132.820295 122.069797 
L 133.124309 119.657712 
L 133.428323 118.735443 
L 133.732337 123.630559 
L 134.036351 125.049433 
L 134.340365 129.802661 
L 134.644379 129.306055 
L 134.948393 132.214747 
L 135.252407 137.109862 
L 135.556421 139.16723 
L 135.860434 142.253281 
L 136.164448 142.891774 
L 136.468462 145.764994 
L 136.772476 144.062345 
L 137.07649 144.062345 
L 137.380504 142.749887 
L 137.684518 144.168761 
L 137.988532 136.861559 
L 138.292546 141.331013 
L 139.204587 149.595954 
L 139.508601 117.919591 
L 139.812615 117.848647 
L 140.116629 115.365618 
L 140.420643 115.578449 
L 141.028671 122.034326 
L 141.636699 126.468307 
L 141.940712 124.020749 
L 142.244726 131.682669 
L 142.54874 132.711353 
L 142.852754 125.333208 
L 143.156768 126.007173 
L 143.460782 124.056221 
L 143.764796 123.772446 
L 144.06881 114.159575 
L 144.372824 108.555022 
L 144.676838 112.52787 
L 144.980851 110.647861 
L 145.284865 110.896164 
L 145.588879 108.058416 
L 146.500921 117.848647 
L 146.804935 115.401089 
L 147.108949 109.832009 
L 147.412963 112.847116 
L 147.716977 113.272778 
L 148.02099 118.487141 
L 148.325004 111.00258 
L 148.629018 112.173151 
L 148.933032 123.382256 
L 149.237046 124.091693 
L 149.845074 128.454731 
L 150.149088 120.296205 
L 150.757116 109.512762 
L 151.061129 108.661438 
L 151.365143 114.230518 
L 151.669157 109.47729 
L 151.973171 112.066735 
L 152.277185 106.994261 
L 152.581199 108.590494 
L 152.885213 107.845585 
L 153.189227 109.299931 
L 153.493241 109.938424 
L 153.797255 100.219137 
L 154.101268 98.303657 
L 154.405282 97.59422 
L 154.709296 94.791944 
L 155.01331 96.991199 
L 155.621338 104.014625 
L 155.925352 105.468971 
L 156.229366 111.995792 
L 156.53338 111.286355 
L 156.837394 112.066735 
L 157.141407 120.296205 
L 157.445421 116.004111 
L 158.053449 119.764127 
L 158.357463 131.611725 
L 158.661477 132.604937 
L 158.965491 135.690988 
L 159.269505 137.25175 
L 159.877533 132.640409 
L 160.181546 125.475095 
L 160.48556 124.446411 
L 161.093588 119.05469 
L 161.701616 127.071328 
L 162.00563 131.50531 
L 162.309644 133.633621 
L 162.613658 134.520417 
L 162.917672 134.130227 
L 163.221685 132.959656 
L 163.525699 124.765658 
L 163.829713 120.686395 
L 164.133727 119.302993 
L 164.437741 116.642604 
L 164.741755 117.13921 
L 165.349783 112.492398 
L 165.653797 121.076586 
L 166.261825 128.135484 
L 166.565838 123.240369 
L 166.869852 127.28416 
L 167.173866 140.90535 
L 167.781894 134.591361 
L 168.085908 125.404151 
L 168.693936 119.302993 
L 168.99795 115.22373 
L 169.301964 114.656181 
L 169.605977 112.421454 
L 169.909991 121.750551 
L 170.822033 140.621576 
L 171.126047 141.295541 
L 171.430061 141.614787 
L 172.038089 148.106136 
L 172.342103 144.452536 
L 173.254144 154.278238 
L 173.558158 143.459324 
L 173.862172 140.373273 
L 174.166186 138.422321 
L 174.4702 137.961187 
L 174.774214 145.232916 
L 175.078228 144.523479 
L 175.382242 148.212552 
L 175.686255 150.411806 
L 175.990269 143.884986 
L 176.294283 143.95593 
L 176.902311 129.412471 
L 177.206325 128.561146 
L 177.510339 130.299267 
L 177.814353 138.741567 
L 178.118367 140.089498 
L 178.422381 143.175549 
L 178.726394 148.425383 
L 179.030408 156.690324 
L 179.638436 159.10241 
L 180.246464 163.962054 
L 180.550478 164.387716 
L 180.854492 160.272981 
L 182.070547 171.091896 
L 182.374561 165.700174 
L 182.678575 166.019421 
L 182.982589 162.897898 
L 183.286603 162.259405 
L 183.894631 158.53486 
L 184.198645 160.840531 
L 184.806672 171.411142 
L 185.110686 167.296408 
L 185.4147 169.247359 
L 185.718714 162.614123 
L 186.022728 162.472236 
L 186.630756 165.451871 
L 186.93477 162.259405 
L 187.238784 165.274512 
L 187.542798 166.941689 
L 187.846811 163.926582 
L 188.150825 172.262467 
L 188.454839 172.404354 
L 188.758853 170.382459 
L 189.062867 176.944751 
L 189.366881 180.066274 
L 189.670895 181.946282 
L 189.974909 182.407416 
L 190.278923 181.556092 
L 190.88695 172.262467 
L 191.190964 174.071531 
L 192.103006 155.839 
L 192.40702 156.548437 
L 192.711034 155.058619 
L 193.015048 156.867683 
L 193.319062 163.32356 
L 193.623076 166.622442 
L 193.927089 174.177947 
L 194.231103 177.68966 
L 194.535117 185.245164 
L 195.447159 194.325958 
L 195.751173 192.020288 
L 196.055187 197.979559 
L 196.359201 200.817307 
L 196.663215 205.251288 
L 196.967228 200.10787 
L 197.271242 206.386387 
L 197.575256 205.251288 
L 197.87927 200.285229 
L 198.487298 181.946282 
L 198.791312 175.029271 
L 199.095326 174.780968 
L 199.39934 173.078319 
L 199.703354 173.433038 
L 200.007368 170.737177 
L 200.311381 166.338668 
L 200.615395 165.380928 
L 200.919409 164.884322 
L 201.223423 167.048105 
L 201.831451 147.857833 
L 202.135465 145.020085 
L 202.439479 149.454067 
L 202.743493 151.511434 
L 203.047507 151.475962 
L 203.655534 159.173354 
L 203.959548 170.950008 
L 204.263562 168.644338 
L 204.567576 170.98548 
L 204.87159 164.103941 
L 205.175604 159.918263 
L 205.479618 164.529603 
L 206.087646 168.183204 
L 206.391659 159.279769 
L 206.695673 159.66996 
L 207.303701 147.148396 
L 207.607715 157.860895 
L 207.911729 158.428445 
L 208.215743 162.472236 
L 208.519757 168.892641 
L 208.823771 172.617185 
L 209.127785 179.03759 
L 209.431798 176.660976 
L 209.735812 176.625504 
L 210.34384 157.257874 
L 210.647854 153.072195 
L 210.951868 146.900093 
L 211.255882 148.212552 
L 211.559896 139.415533 
L 211.86391 137.393637 
L 212.471937 149.52501 
L 212.775951 148.815573 
L 213.079965 155.555225 
L 213.383979 154.207295 
L 213.687993 159.315241 
L 213.992007 158.14467 
L 214.296021 154.455598 
L 214.600035 145.232916 
L 214.904049 145.800466 
L 215.208063 150.872941 
L 215.512076 149.241235 
L 215.81609 146.758206 
L 216.120104 148.248024 
L 216.424118 147.396699 
L 216.728132 152.078983 
L 217.032146 159.4926 
L 217.33616 160.166566 
L 217.640174 161.869214 
L 217.944188 162.685067 
L 218.248202 167.757542 
L 218.552215 166.799802 
L 218.856229 163.110729 
L 219.464257 164.494131 
L 219.768271 165.877534 
L 220.072285 169.318303 
L 220.376299 167.048105 
L 220.680313 163.146201 
L 220.984327 161.798271 
L 221.592354 174.81644 
L 221.896368 176.235314 
L 222.504396 191.381794 
L 223.112424 206.528275 
L 223.416438 182.655719 
L 223.720452 190.175752 
L 224.024466 203.442224 
L 224.632493 214.438498 
L 224.936507 207.734318 
L 225.544535 211.60075 
L 225.848549 209.827157 
L 226.152563 204.222605 
L 226.456577 209.082248 
L 226.760591 199.788623 
L 227.368619 205.180345 
L 227.672632 205.357704 
L 227.976646 206.315444 
L 228.888688 220.220409 
L 229.192702 224.051369 
L 229.496716 193.829352 
L 229.80073 200.072398 
L 230.104744 198.334277 
L 230.408758 201.491272 
L 230.712772 207.556959 
L 231.016785 204.399964 
L 231.320799 206.386387 
L 231.624813 207.379599 
L 231.928827 206.81205 
L 232.232841 219.014366 
L 232.536855 217.063415 
L 232.840869 228.698182 
L 233.144883 212.629433 
L 233.448897 205.818838 
L 233.752911 205.818838 
L 234.056924 208.763002 
L 234.360938 205.783366 
L 234.664952 206.421859 
L 234.968966 203.087505 
L 235.27298 202.342596 
L 236.185022 184.039121 
L 236.79305 177.654188 
L 237.097063 173.326622 
L 237.705091 177.263998 
L 238.009105 174.639081 
L 238.313119 181.875338 
L 238.617133 173.8587 
L 238.921147 174.993799 
L 239.225161 178.186266 
L 239.529175 179.676084 
L 239.833189 174.142475 
L 240.441216 187.976497 
L 240.74523 195.354642 
L 241.049244 192.83614 
L 241.353258 195.673888 
L 241.657272 188.011969 
L 241.961286 186.096489 
L 242.2653 193.226331 
L 242.569314 189.714617 
L 242.873328 187.976497 
L 243.177341 179.002118 
L 243.481355 176.909279 
L 243.785369 173.539453 
L 244.393397 182.833078 
L 244.697411 179.285893 
L 245.001425 185.635355 
L 245.305439 184.039121 
L 245.609453 174.745496 
L 245.913467 181.556092 
L 246.21748 192.516894 
L 246.521494 197.23465 
L 247.129522 209.224136 
L 248.041564 224.228729 
L 248.345578 224.015897 
L 248.649592 227.563083 
L 249.257619 221.674755 
L 249.561633 214.828688 
L 250.169661 193.332746 
L 250.473675 181.094958 
L 251.689731 159.705431 
L 251.993745 169.247359 
L 252.297758 171.836805 
L 252.601772 181.875338 
L 252.905786 181.591564 
L 253.2098 185.670826 
L 253.513814 193.864824 
L 254.121842 199.824095 
L 254.425856 195.638417 
L 254.72987 187.302532 
L 255.033884 193.651993 
L 255.641911 186.841398 
L 255.945925 173.8587 
L 256.553953 176.554561 
L 256.857967 160.202037 
L 257.465995 154.739372 
L 257.770009 154.987675 
L 258.378036 143.743098 
L 258.68205 146.2616 
L 258.986064 137.500053 
L 259.290078 132.533994 
L 259.594092 131.150591 
L 259.898106 132.001916 
L 260.20212 131.966444 
L 260.506134 138.812511 
L 260.810148 139.415533 
L 261.114162 145.658578 
L 261.418175 144.984613 
L 261.722189 146.2616 
L 262.026203 140.621576 
L 262.330217 145.091029 
L 262.634231 143.317436 
L 262.938245 144.771782 
L 263.242259 140.089498 
L 263.546273 146.900093 
L 263.850287 150.057088 
L 264.458315 160.592228 
L 264.762328 160.521284 
L 265.370356 173.362094 
L 265.67437 176.306258 
L 266.282398 191.417266 
L 266.586412 195.390114 
L 266.890426 197.553897 
L 267.19444 202.697315 
L 267.498454 199.965982 
L 268.106481 187.125172 
L 268.410495 188.756878 
L 268.714509 189.501786 
L 269.018523 178.966647 
L 269.322537 177.015695 
L 269.626551 172.33341 
L 269.930565 170.276043 
L 270.234579 177.12211 
L 270.842606 184.287424 
L 271.14662 182.47836 
L 271.450634 178.25721 
L 271.754648 180.066274 
L 272.058662 177.547773 
L 272.970704 152.823892 
L 273.274718 149.241235 
L 273.578732 139.876667 
L 273.882745 134.875136 
L 274.186759 140.408744 
L 275.098801 127.780766 
L 275.402815 132.250219 
L 275.706829 132.46305 
L 276.010843 133.881924 
L 276.314857 134.76872 
L 276.618871 134.414002 
L 277.226898 146.190656 
L 277.530912 147.538587 
L 277.834926 151.617849 
L 278.13894 145.161973 
L 278.442954 144.73631 
L 278.746968 145.481219 
L 279.050982 153.639745 
L 279.354996 155.165035 
L 279.65901 170.134156 
L 279.963023 172.262467 
L 280.571051 199.362961 
L 280.875065 210.46565 
L 281.179079 207.876205 
L 281.483093 203.619583 
L 281.787107 201.278441 
L 282.395135 190.388583 
L 282.699149 180.350049 
L 283.003162 160.876003 
L 283.61119 152.575589 
L 283.915204 152.256343 
L 284.219218 149.808785 
L 284.523232 157.506177 
L 284.827246 159.776375 
L 285.435274 182.974966 
L 285.739288 188.650462 
L 286.043301 186.805926 
L 286.651329 194.255014 
L 286.955343 203.867886 
L 287.259357 202.41354 
L 287.563371 202.271653 
L 287.867385 206.315444 
L 288.171399 201.278441 
L 288.475413 201.775047 
L 288.779427 205.322232 
L 289.08344 200.604476 
L 289.387454 203.477696 
L 289.995482 212.877736 
L 290.299496 210.323763 
L 291.211538 184.819502 
L 291.819566 177.476829 
L 292.123579 164.529603 
L 292.427593 159.10241 
L 293.339635 128.100012 
L 293.643649 129.19964 
L 293.947663 124.943017 
L 294.251677 125.75887 
L 294.555691 122.601875 
L 295.163719 120.828283 
L 295.467732 118.629028 
L 295.771746 122.708291 
L 296.07576 121.431304 
L 296.379774 132.143803 
L 296.683788 138.422321 
L 296.987802 142.111393 
L 297.291816 149.737841 
L 297.59583 152.362758 
L 297.899844 162.294877 
L 298.203858 159.279769 
L 298.507871 151.688793 
L 298.811885 156.371077 
L 299.115899 156.264662 
L 299.419913 155.732584 
L 299.723927 161.01789 
L 300.331955 167.083576 
L 300.635969 180.350049 
L 300.939983 177.157582 
L 301.54801 178.789287 
L 301.852024 173.503982 
L 302.156038 170.346987 
L 302.460052 159.244297 
L 302.764066 153.426914 
L 303.372094 147.325755 
L 303.676108 148.638214 
L 303.980122 148.992932 
L 304.284136 148.17708 
L 304.588149 141.295541 
L 304.892163 144.91367 
L 305.196177 138.067602 
L 305.500191 138.422321 
L 305.804205 140.550632 
L 306.108219 140.51516 
L 306.412233 135.194382 
L 306.716247 138.03213 
L 307.020261 137.64194 
L 307.324275 136.187594 
L 307.628288 133.456262 
L 307.932302 128.490203 
L 308.236316 126.574723 
L 308.54033 135.087967 
L 308.844344 128.667562 
L 309.148358 132.214747 
L 309.452372 132.46305 
L 309.756386 130.512098 
L 310.0604 135.72646 
L 310.668427 137.783828 
L 310.972441 139.663836 
L 311.276455 139.060814 
L 311.580469 146.403487 
L 311.884483 140.373273 
L 312.492511 135.017023 
L 312.796525 135.797404 
L 313.100539 139.060814 
L 313.404553 118.026006 
L 313.708566 123.240369 
L 314.01258 125.084905 
L 314.316594 131.860028 
L 314.620608 141.331013 
L 314.924622 147.183868 
L 315.53265 145.161973 
L 315.836664 143.707627 
L 316.140678 145.729522 
L 316.748705 142.04045 
L 317.356733 137.429109 
L 318.268775 158.038254 
L 318.572789 154.242766 
L 318.876803 151.972568 
L 319.180817 146.545375 
L 319.484831 135.513629 
L 319.788844 138.315905 
L 320.092858 129.128696 
L 320.396872 129.447943 
L 321.0049 137.287222 
L 321.308914 138.98987 
L 321.612928 143.423852 
L 321.916942 136.329482 
L 322.220956 136.577785 
L 322.52497 149.454067 
L 322.828983 150.376335 
L 323.132997 145.232916 
L 323.741025 163.642807 
L 324.045039 167.509239 
L 324.349053 163.429976 
L 324.957081 144.488007 
L 325.565109 128.561146 
L 325.869123 127.248688 
L 326.173136 122.3181 
L 326.47715 111.924848 
L 326.781164 115.755808 
L 327.085178 115.613921 
L 327.389192 123.098481 
L 327.693206 122.601875 
L 327.99722 127.532463 
L 328.605248 140.302329 
L 328.909262 141.86309 
L 329.517289 131.221535 
L 329.821303 132.569465 
L 330.125317 132.46305 
L 330.429331 133.598149 
L 330.733345 130.689457 
L 331.037359 123.169425 
L 331.341373 123.736974 
L 331.645387 128.2419 
L 332.253414 161.337137 
L 332.557428 164.565075 
L 332.861442 163.749222 
L 333.165456 153.107667 
L 333.46947 149.844257 
L 333.773484 148.318967 
L 334.077498 150.801997 
L 334.381512 109.299931 
L 334.98954 109.299931 
L 335.293553 134.236642 
L 335.597567 132.037388 
L 336.205595 143.459324 
L 336.813623 172.049636 
L 337.117637 167.119048 
L 337.421651 165.026209 
L 337.725665 161.124306 
L 338.029679 154.987675 
L 338.333692 154.916732 
L 338.637706 158.428445 
L 338.94172 158.570332 
L 339.245734 156.442021 
L 339.853762 160.45034 
L 340.157776 154.349182 
L 340.46179 160.734115 
L 340.765804 160.521284 
L 341.069818 156.79674 
L 341.373831 161.549968 
L 341.677845 153.285026 
L 341.981859 149.52501 
L 342.285873 149.418595 
L 342.589887 154.987675 
L 342.893901 152.256343 
L 343.197915 146.332544 
L 343.501929 144.878198 
L 343.805943 152.291815 
L 344.109957 156.442021 
L 344.41397 162.223933 
L 344.717984 155.342394 
L 345.021998 161.904686 
L 345.326012 161.40808 
L 345.630026 162.578651 
L 346.238054 155.803528 
L 346.542068 156.193718 
L 346.846082 158.747691 
L 347.150096 162.720539 
L 347.454109 157.045043 
L 347.758123 155.27145 
L 348.366151 149.844257 
L 348.670165 147.822361 
L 348.974179 147.715946 
L 349.582207 142.182337 
L 349.886221 147.183868 
L 350.190235 157.045043 
L 350.494248 160.166566 
L 350.798262 164.955265 
L 351.102276 159.244297 
L 351.710304 129.873605 
L 352.014318 121.856966 
L 352.318332 109.902953 
L 352.622346 103.659907 
L 352.92636 105.752746 
L 353.230374 98.800263 
L 353.534387 103.695379 
L 354.446429 90.49985 
L 354.750443 96.459121 
L 355.054457 107.455395 
L 355.358471 111.924848 
L 355.662485 113.804856 
L 355.966499 111.924848 
L 356.270513 112.740701 
L 356.574526 124.623771 
L 356.87854 127.851709 
L 357.182554 121.786023 
L 357.486568 121.608663 
L 358.094596 132.250219 
L 358.39861 129.270583 
L 358.702624 136.187594 
L 359.006638 139.663836 
L 359.310652 137.358165 
L 359.614666 143.211021 
L 359.918679 135.974763 
L 360.222693 124.730186 
L 360.526707 120.438092 
L 360.830721 125.155849 
L 361.134735 123.949806 
L 361.742763 133.917396 
L 362.046777 127.638878 
L 362.350791 133.740036 
L 362.654805 133.243431 
L 362.958818 124.943017 
L 363.262832 133.562677 
L 363.87086 125.084905 
L 364.174874 125.404151 
L 364.478888 123.666031 
L 364.782902 117.990535 
L 365.086916 119.586768 
L 365.39093 119.409409 
L 365.694944 120.438092 
L 365.998957 127.177744 
L 366.606985 132.533994 
L 366.910999 135.513629 
L 367.215013 133.562677 
L 367.519027 137.180806 
L 367.823041 133.598149 
L 368.127055 132.817768 
L 368.431069 133.846452 
L 368.735083 134.130227 
L 369.039096 107.56181 
L 369.34311 105.930105 
L 369.647124 101.708955 
L 369.951138 100.893102 
L 370.559166 81.596415 
L 370.86318 75.35337 
L 371.167194 61.980482 
L 371.471208 66.237104 
L 372.383249 91.45759 
L 372.687263 94.685528 
L 372.991277 85.179072 
L 373.295291 85.391903 
L 373.599305 77.588096 
L 373.903319 76.914131 
L 374.207333 70.990332 
L 374.511347 73.402418 
L 374.815361 70.139007 
L 375.119374 75.069595 
L 375.423388 63.754074 
L 375.727402 61.590291 
L 376.031416 58.610656 
L 376.33543 60.100474 
L 376.639444 54.921583 
L 376.943458 42.045301 
L 377.247472 45.982677 
L 377.551486 47.082304 
L 377.8555 51.906476 
L 378.159513 51.80006 
L 378.463527 58.291409 
L 378.767541 55.63102 
L 379.071555 58.11405 
L 379.375569 58.433297 
L 379.679583 76.914131 
L 379.983597 84.717938 
L 380.287611 82.057549 
L 380.591625 80.709619 
L 380.895639 88.229652 
L 381.199652 83.086233 
L 381.503666 83.724726 
L 381.80768 80.745091 
L 382.415708 72.054487 
L 383.32775 44.670218 
L 383.631764 54.886112 
L 383.935778 47.720798 
L 384.239791 49.317031 
L 384.543805 48.643066 
L 384.847819 53.077047 
L 385.151833 47.507967 
L 385.455847 50.026468 
L 385.759861 50.700433 
L 386.063875 49.423446 
L 386.367889 45.982677 
L 386.671903 40.910202 
L 386.975917 32.609789 
L 387.27993 37.717736 
L 387.583944 31.439218 
L 387.887958 29.55921 
L 388.495986 21.861818 
L 388.495986 21.861818 
" clip-path="url(#p101adaa04b)" style="fill: none; stroke: #8b4513; stroke-width: 1.5; stroke-linecap: square"/>
   </g>
   <g id="patch_7">
    <path d="M 38.88 239.04 
L 38.88 11.52 
" style="fill: none; stroke: #000000; stroke-width: 0.8; stroke-linejoin: miter; stroke-linecap: square"/>
   </g>
   <g id="patch_8">
    <path d="M 388.8 239.04 
L 388.8 11.52 
" style="fill: none; stroke: #000000; stroke-width: 0.8; stroke-linejoin: miter; stroke-linecap: square"/>
   </g>
   <g id="patch_9">
    <path d="M 38.88 239.04 
L 388.8 239.04 
" style="fill: none; stroke: #000000; stroke-width: 0.8; stroke-linejoin: miter; stroke-linecap: square"/>
   </g>
   <g id="patch_10">
    <path d="M 38.88 11.52 
L 388.8 11.52 
" style="fill: none; stroke: #000000; stroke-width: 0.8; stroke-linejoin: miter; stroke-linecap: square"/>
   </g>
   <g id="legend_1">
    <g id="patch_11">
     <path d="M 319.8 50.479375 
L 381.8 50.479375 
Q 383.8 50.479375 383.8 48.479375 
L 383.8 18.52 
Q 383.8 16.52 381.8 16.52 
L 319.8 16.52 
Q 317.8 16.52 317.8 18.52 
L 317.8 48.479375 
Q 317.8 50.479375 319.8 50.479375 
z
" style="fill: #ffffff; opacity: 0.8; stroke: #cccccc; stroke-linejoin: miter"/>
    </g>
    <g id="line2d_25">
     <path d="M 321.8 25.01375 
L 331.8 25.01375 
L 341.8 25.01375 
" style="fill: none; stroke: #ff4500; stroke-width: 1.5; stroke-linecap: square"/>
    </g>
    <g id="text_26">
     <!-- 周跳 -->
     <g transform="translate(349.8 28.51375) scale(0.1 -0.1)">
      <use xlink:href="#MicrosoftYaHei-5468"/>
      <use xlink:href="#MicrosoftYaHei-8df3" x="100"/>
     </g>
    </g>
    <g id="line2d_26">
     <path d="M 321.8 40.493437 
L 331.8 40.493437 
L 341.8 40.493437 
" style="fill: none; stroke: #8b4513; stroke-width: 1.5; stroke-linecap: square"/>
    </g>
    <g id="text_27">
     <!-- 多路径 -->
     <g transform="translate(349.8 43.993437) scale(0.1 -0.1)">
      <use xlink:href="#MicrosoftYaHei-591a"/>
      <use xlink:href="#MicrosoftYaHei-8def" x="100"/>
      <use xlink:href="#MicrosoftYaHei-5f84" x="200"/>
     </g>
    </g>
   </g>
  </g>
 </g>
 <defs>
  <clipPath id="p101adaa04b">
   <rect x="38.88" y="11.52" width="349.92" height="227.52"/>
  </clipPath>
 </defs>
</svg>
